<svg width="550" height="350" viewBox="0 0 550 350" fill="none" xmlns="http://www.w3.org/2000/svg">
<path fill-rule="evenodd" clip-rule="evenodd" d="M550 38.2017H0V10.7737C0 4.82391 6.69805 0 14.9594 0H535.041C543.303 0 550 4.82391 550 10.7737V38.2017Z" fill="#311643"/>
<path fill-rule="evenodd" clip-rule="evenodd" d="M27.3974 19.3273C27.3974 23.0369 24.0947 26.0445 20.0208 26.0445C15.9473 26.0445 12.6451 23.0369 12.6451 19.3273C12.6451 15.6177 15.9473 12.6101 20.0208 12.6101C24.0947 12.6101 27.3974 15.6177 27.3974 19.3273Z" fill="#FF7946"/>
<path fill-rule="evenodd" clip-rule="evenodd" d="M50.5794 19.3273C50.5794 23.0369 47.2771 26.0445 43.203 26.0445C39.1294 26.0445 35.8271 23.0369 35.8271 19.3273C35.8271 15.6177 39.1294 12.6101 43.203 12.6101C47.2771 12.6101 50.5794 15.6177 50.5794 19.3273Z" fill="#FAAD14"/>
<path fill-rule="evenodd" clip-rule="evenodd" d="M73.7615 19.3273C73.7615 23.0369 70.931 26.0445 67.4389 26.0445C63.9472 26.0445 61.1167 23.0369 61.1167 19.3273C61.1167 15.6177 63.9472 12.6101 67.4389 12.6101C70.931 12.6101 73.7615 15.6177 73.7615 19.3273Z" fill="#7CB305"/>
<path fill-rule="evenodd" clip-rule="evenodd" d="M16.6584 350C7.45879 350 0 344.37 0 337.426V38.0198H550V337.426C550 344.37 542.542 350 533.342 350H16.6584Z" fill="#859FBC"/>
</svg>
