<svg width="550" height="384" viewBox="0 0 550 384" fill="none" xmlns="http://www.w3.org/2000/svg">
<path fill-rule="evenodd" clip-rule="evenodd" d="M550 38.4017H0V10.8301C0 4.84917 6.69805 0 14.9594 0H535.041C543.303 0 550 4.84917 550 10.8301V38.4017Z" fill="#C8777B"/>
<path fill-rule="evenodd" clip-rule="evenodd" d="M27.3974 19.4284C27.3974 23.1574 24.0947 26.1807 20.0208 26.1807C15.9473 26.1807 12.6451 23.1574 12.6451 19.4284C12.6451 15.6994 15.9473 12.676 20.0208 12.676C24.0947 12.676 27.3974 15.6994 27.3974 19.4284Z" fill="#FF7946"/>
<path fill-rule="evenodd" clip-rule="evenodd" d="M50.5794 19.4284C50.5794 23.1574 47.2771 26.1807 43.203 26.1807C39.1294 26.1807 35.8271 23.1574 35.8271 19.4284C35.8271 15.6994 39.1294 12.676 43.203 12.676C47.2771 12.676 50.5794 15.6994 50.5794 19.4284Z" fill="#FAAD14"/>
<path fill-rule="evenodd" clip-rule="evenodd" d="M73.7614 19.4284C73.7614 23.1574 70.9309 26.1807 67.4388 26.1807C63.9472 26.1807 61.1166 23.1574 61.1166 19.4284C61.1166 15.6994 63.9472 12.676 67.4388 12.676C70.9309 12.676 73.7614 15.6994 73.7614 19.4284Z" fill="#7CB305"/>
<path fill-rule="evenodd" clip-rule="evenodd" d="M16.6584 384C7.45879 384 0 377.76 0 370.062V38.199H550V370.062C550 377.76 542.542 384 533.342 384H16.6584Z" fill="#F0D2D6"/>
</svg>
