<svg width="550" height="350" viewBox="0 0 550 350" fill="none" xmlns="http://www.w3.org/2000/svg">
<path fill-rule="evenodd" clip-rule="evenodd" d="M550 38.0872H0V10.7414C0 4.80947 6.69805 0 14.9594 0H535.041C543.303 0 550 4.80947 550 10.7414V38.0872Z" fill="#2C4867"/>
<path fill-rule="evenodd" clip-rule="evenodd" d="M27.3974 19.2696C27.3974 22.968 24.0947 25.9666 20.0208 25.9666C15.9473 25.9666 12.6451 22.968 12.6451 19.2696C12.6451 15.5711 15.9473 12.5725 20.0208 12.5725C24.0947 12.5725 27.3974 15.5711 27.3974 19.2696Z" fill="#FF7946"/>
<path fill-rule="evenodd" clip-rule="evenodd" d="M50.5796 19.2696C50.5796 22.968 47.2774 25.9666 43.2033 25.9666C39.1297 25.9666 35.8274 22.968 35.8274 19.2696C35.8274 15.5711 39.1297 12.5725 43.2033 12.5725C47.2774 12.5725 50.5796 15.5711 50.5796 19.2696Z" fill="#FAAD14"/>
<path fill-rule="evenodd" clip-rule="evenodd" d="M73.7615 19.2696C73.7615 22.968 70.931 25.9666 67.4389 25.9666C63.9472 25.9666 61.1167 22.968 61.1167 19.2696C61.1167 15.5711 63.9472 12.5725 67.4389 12.5725C70.931 12.5725 73.7615 15.5711 73.7615 19.2696Z" fill="#7CB305"/>
<path fill-rule="evenodd" clip-rule="evenodd" d="M16.6584 350C7.45879 350 0 344.37 0 337.425V38H550V337.425C550 344.37 542.542 350 533.342 350H16.6584Z" fill="#C8777B"/>
</svg>
