<svg width="550" height="384" viewBox="0 0 550 384" fill="none" xmlns="http://www.w3.org/2000/svg">
<path fill-rule="evenodd" clip-rule="evenodd" d="M550 38.2017H0V10.7737C0 4.82392 6.69805 0 14.9594 0H535.041C543.303 0 550 4.82392 550 10.7737V38.2017Z" fill="#416EA2"/>
<path fill-rule="evenodd" clip-rule="evenodd" d="M27.3974 21.3273C27.3974 25.0369 24.0947 28.0445 20.0208 28.0445C15.9473 28.0445 12.6451 25.0369 12.6451 21.3273C12.6451 17.6177 15.9473 14.6101 20.0208 14.6101C24.0947 14.6101 27.3974 17.6177 27.3974 21.3273Z" fill="#FF7946"/>
<path fill-rule="evenodd" clip-rule="evenodd" d="M50.5794 21.3273C50.5794 25.0369 47.2771 28.0445 43.203 28.0445C39.1294 28.0445 35.8271 25.0369 35.8271 21.3273C35.8271 17.6177 39.1294 14.6101 43.203 14.6101C47.2771 14.6101 50.5794 17.6177 50.5794 21.3273Z" fill="#FAAD14"/>
<path fill-rule="evenodd" clip-rule="evenodd" d="M73.7615 21.3273C73.7615 25.0369 70.931 28.0445 67.4389 28.0445C63.9472 28.0445 61.1167 25.0369 61.1167 21.3273C61.1167 17.6177 63.9472 14.6101 67.4389 14.6101C70.931 14.6101 73.7615 17.6177 73.7615 21.3273Z" fill="#7CB305"/>
<path fill-rule="evenodd" clip-rule="evenodd" d="M16.6584 384C7.45879 384 0 377.756 0 370.054V38H550V370.054C550 377.756 542.542 384 533.342 384H16.6584Z" fill="#D1E2F4"/>
</svg>
