<svg width="507" height="412" viewBox="0 0 507 412" fill="none" xmlns="http://www.w3.org/2000/svg">
<path d="M383.481 338.948C398.964 310.601 350.086 297.271 338.304 308.516C326.52 319.761 365.584 371.715 383.481 338.948Z" fill="#DCAAB1"/>
<path d="M404.029 330.297C434.413 330.297 420.662 275.951 407.672 275.951C391.384 275.951 368.924 330.297 404.029 330.297Z" fill="#DCAAB1"/>
<path d="M427.447 350.009C452.496 370.401 474.513 324.774 465.606 311.138C456.699 297.504 398.493 326.439 427.447 350.009Z" fill="#DCAAB1"/>
<path d="M395.504 363.503C391.276 353.72 385.087 344.604 377.111 336.411C363.54 322.474 349.266 315.937 349.123 315.873C348.698 315.682 348.197 315.871 348.006 316.294C347.814 316.719 348.003 317.22 348.427 317.412C348.566 317.476 362.593 323.907 375.941 337.633C383.764 345.676 389.829 354.617 393.967 364.207C394.436 365.296 394.873 366.395 395.293 367.5H397.098C396.6 366.156 396.074 364.822 395.504 363.503Z" fill="#A63D4C"/>
<path d="M406.917 287.096C406.971 286.633 406.64 286.213 406.177 286.157C405.713 286.099 405.295 286.432 405.239 286.895C405.184 287.356 400.923 323.775 401.141 367.499H402.829C402.613 323.889 406.862 287.556 406.917 287.096Z" fill="#A63D4C"/>
<path d="M457.168 317.245C456.909 316.858 456.385 316.752 455.998 317.011C455.876 317.092 443.689 325.29 431.151 338.774C424.322 346.116 416.559 355.962 410.872 367.5H412.76C418.319 356.471 425.779 347.033 432.361 339.952C444.767 326.604 456.815 318.496 456.936 318.416C457.324 318.156 457.428 317.632 457.168 317.245Z" fill="#A63D4C"/>
<path d="M402.831 367.5H401.142H397.099H395.294H371.726C370.82 367.5 370.177 368.386 370.457 369.248L371.945 373.812L372.697 376.122L383.467 409.167C383.759 410.064 384.596 410.672 385.539 410.672H424.361C425.305 410.672 426.14 410.064 426.432 409.167L437.204 376.122L437.956 373.812L439.444 369.248C439.725 368.386 439.083 367.5 438.176 367.5H412.756H410.868H402.831Z" fill="#AE4147"/>
<path d="M437.959 373.811L437.206 376.121H372.698L371.945 373.811H437.959Z" fill="#D2B18A"/>
<path d="M395.708 217.534V215.751C395.708 215.2 395.261 214.753 394.71 214.753H353.345C351.258 214.753 349.566 216.445 349.566 218.532V221.571C349.566 223.658 351.258 225.35 353.345 225.35H394.71C395.261 225.35 395.708 224.903 395.708 224.352V222.569C395.708 222.018 395.261 221.571 394.71 221.571H354.865C354.025 221.571 353.345 220.89 353.345 220.051C353.345 219.211 354.025 218.531 354.865 218.531H394.71C395.261 218.532 395.708 218.085 395.708 217.534Z" fill="#D2B18A"/>
<path d="M395.307 185.742V183.959C395.307 183.407 394.86 182.96 394.309 182.96H352.944C350.857 182.96 349.165 184.652 349.165 186.739V189.779C349.165 191.866 350.857 193.558 352.944 193.558H394.309C394.86 193.558 395.307 193.111 395.307 192.559V190.777C395.307 190.225 394.86 189.779 394.309 189.779H354.464C353.624 189.779 352.944 189.098 352.944 188.259C352.944 187.419 353.624 186.739 354.464 186.739H394.309C394.86 186.74 395.307 186.293 395.307 185.742Z" fill="#D2B18A"/>
<path d="M392.752 206.936V205.154C392.752 204.602 392.305 204.156 391.755 204.156H356.301C354.214 204.156 352.522 205.848 352.522 207.935V210.974C352.522 213.061 354.214 214.753 356.301 214.753H391.755C392.306 214.753 392.752 214.306 392.752 213.755V211.972C392.752 211.421 392.305 210.974 391.755 210.974H357.821C356.981 210.974 356.301 210.294 356.301 209.454C356.301 208.615 356.981 207.934 357.821 207.934H391.755C392.305 207.935 392.752 207.488 392.752 206.936Z" fill="#C8777B"/>
<path d="M398.708 175.432V173.65C398.708 173.098 398.261 172.651 397.709 172.651H362.255C360.168 172.651 358.477 174.343 358.477 176.43V179.47C358.477 181.557 360.168 183.249 362.255 183.249H397.709C398.261 183.249 398.708 182.802 398.708 182.25V180.468C398.708 179.916 398.261 179.469 397.709 179.469H363.775C362.936 179.469 362.255 178.789 362.255 177.949C362.255 177.11 362.936 176.429 363.775 176.429H397.709C398.261 176.43 398.708 175.983 398.708 175.432Z" fill="#C8777B"/>
<path d="M391.438 207.935V210.974H357.82C356.981 210.974 356.3 210.294 356.3 209.454C356.3 208.614 356.981 207.934 357.82 207.934H391.438V207.935Z" fill="#EFF1FA"/>
<path d="M388.469 218.532V221.572H354.851C354.012 221.572 353.331 220.891 353.331 220.052C353.331 219.212 354.012 218.532 354.851 218.532H388.469V218.532Z" fill="#EFF1FA"/>
<path d="M388.068 186.74V189.779H354.45C353.61 189.779 352.93 189.099 352.93 188.259C352.93 187.42 353.61 186.739 354.45 186.739H388.068V186.74Z" fill="#EFF1FA"/>
<path d="M397.393 176.43V179.47H363.776C362.936 179.47 362.256 178.789 362.256 177.95C362.256 177.11 362.936 176.43 363.776 176.43H397.393V176.43Z" fill="#EFF1FA"/>
<path d="M398.708 196.339V194.556C398.708 194.005 398.261 193.559 397.709 193.559H362.255C360.168 193.559 358.477 195.251 358.477 197.338V200.377C358.477 202.464 360.168 204.156 362.255 204.156H397.709C398.261 204.156 398.708 203.709 398.708 203.158V201.375C398.708 200.823 398.261 200.376 397.709 200.376H363.775C362.936 200.376 362.255 199.696 362.255 198.857C362.255 198.017 362.936 197.337 363.775 197.337H397.709C398.261 197.337 398.708 196.89 398.708 196.339Z" fill="#656F29"/>
<path d="M397.393 197.337V200.376H363.776C362.936 200.376 362.256 199.696 362.256 198.856C362.256 198.017 362.936 197.336 363.776 197.336H397.393V197.337Z" fill="#EFF1FA"/>
<path d="M221.228 301.282L207.874 412H203.495L216.849 301.282H221.228Z" fill="#636F44"/>
<path d="M162.212 301.281L160.71 313.733L148.858 412H144.477L156.389 313.247L157.831 301.281H162.212Z" fill="#636F44"/>
<path d="M221.228 412H216.848L215.002 396.688L212.813 378.532L205.608 318.811L203.495 301.281H207.874L210.049 319.312L215.002 360.373L217.192 378.528L221.228 412Z" fill="#636F44"/>
<path d="M280.245 412H275.865L265.5 326.064L262.51 301.281H266.891L269.938 326.541L280.245 412Z" fill="#636F44"/>
<path d="M162.425 227.268H158.045V294.242H162.425V227.268Z" fill="#636F44"/>
<path d="M221.943 227.268H217.564V294.242H221.943V227.268Z" fill="#636F44"/>
<path d="M268.729 294.242H208.549C210.493 294.242 212.069 295.818 212.069 297.762C212.069 299.706 210.493 301.282 208.549 301.282H268.729C270.673 301.282 272.249 299.706 272.249 297.762C272.249 295.818 270.673 294.242 268.729 294.242Z" fill="#636F44"/>
<path d="M212.07 297.762C212.07 295.818 210.493 294.242 208.55 294.242H162.518H156.589C154.645 294.242 153.069 295.818 153.069 297.762C153.069 299.706 154.645 301.282 156.589 301.282H162.518H208.55C210.493 301.282 212.07 299.706 212.07 297.762Z" fill="#204429"/>
<path d="M225.523 176.867H154.467C151.758 176.867 149.561 179.064 149.561 181.773V222.364C149.561 225.073 151.758 227.27 154.467 227.27H225.523C228.232 227.27 230.429 225.073 230.429 222.364V181.773C230.427 179.064 228.232 176.867 225.523 176.867Z" fill="#636F44"/>
<path d="M162.212 301.281L160.71 313.733C159.127 313.554 157.681 313.391 156.389 313.247L157.832 301.281H162.212Z" fill="#656F29"/>
<path d="M207.874 301.281L210.049 319.312C208.561 319.145 207.08 318.976 205.608 318.811L203.494 301.281H207.874Z" fill="#656F29"/>
<path d="M269.938 326.541C268.524 326.39 267.042 326.231 265.5 326.062L262.511 301.281H266.892L269.938 326.541Z" fill="#656F29"/>
<path d="M158.045 227.268H162.425V236.518L158.045 236.033V227.268Z" fill="#656F29"/>
<path d="M221.943 227.268V243.107L217.564 242.622V227.268H221.943Z" fill="#656F29"/>
<path d="M276.971 411.624H272.583L262.201 325.546H262.2L259.207 300.722H263.595L266.647 326.024L276.971 411.624Z" fill="#D2DCFF"/>
<path d="M219.481 226.5H215.094V293.584H219.481V226.5Z" fill="#D2DCFF"/>
<path d="M267.554 325.936C266.138 325.784 264.655 325.624 263.11 325.457H263.108L260.115 300.634H264.503L267.554 325.936Z" fill="#AEC3FF"/>
<path d="M219.48 226.5V242.364L215.094 241.879V226.5H219.48Z" fill="#AEC3FF"/>
<path d="M228.061 108.774C222.906 117.302 207.151 129.573 183.722 122.083V122.084C183.649 122.074 183.576 122.067 183.499 122.067C177.926 122.067 177.537 137.568 186.916 138.463C187.055 138.918 187.197 139.351 187.341 139.755V164.962H208.497V155.164C209.972 155.58 211.385 155.819 212.68 155.819C221.43 155.819 236.643 142.32 236.988 121.054C234.647 120.526 228.061 114.723 228.061 108.774Z" fill="#FCBEB7"/>
<path d="M241.433 114.87C241.433 100.863 229.08 89.5156 210.556 89.5156C195.161 89.5156 189.871 98.0108 189.871 98.0108C189.871 98.0108 175.32 101.155 175.32 119.237C175.32 136.045 175.32 164.963 175.32 164.963H199.229H200.448H218.106H237.301V127.306C238.818 125.444 241.433 121.302 241.433 114.87ZM212.681 155.819C211.386 155.819 209.973 155.58 208.499 155.164V164.962H187.343V139.756C187.198 139.351 187.056 138.919 186.918 138.464C177.539 137.568 177.927 122.068 183.5 122.068C183.576 122.068 183.65 122.074 183.723 122.085V122.083C207.152 129.573 222.908 117.301 228.063 108.775C228.063 114.725 234.648 120.527 236.991 121.056C236.643 142.32 221.43 155.819 212.681 155.819Z" fill="#311643"/>
<path d="M170.772 163.105L187.343 155.428L196.435 155.668L208.499 156.237L225.833 161.501V183.619H170.772V163.105Z" fill="#FCBEB7"/>
<path d="M225.833 184.973V161.501L208.497 156.236V155.164C203.595 153.781 198.023 150.431 193.93 147.304L225.833 184.973Z" fill="#F9AFAB"/>
<path d="M197.199 139.008C200.387 139.008 202.971 136.424 202.971 133.237C202.971 130.049 200.387 127.465 197.199 127.465C194.011 127.465 191.427 130.049 191.427 133.237C191.427 136.424 194.011 139.008 197.199 139.008Z" fill="#F49795"/>
<path d="M236.246 128.445C235.515 132.321 234.288 135.856 232.739 139.001C229.687 138.849 227.26 136.327 227.26 133.237C227.26 130.049 229.844 127.466 233.031 127.466C234.22 127.466 235.327 127.826 236.246 128.445Z" fill="#F49795"/>
<path d="M226.484 115.685C222.27 115.685 218.791 118.888 218.352 122.988C216.062 121.91 214.04 122.494 212.972 122.984C212.531 118.887 209.054 115.685 204.842 115.685C200.332 115.685 196.663 119.353 196.663 123.863C196.663 128.373 200.332 132.041 204.842 132.041C209.251 132.041 212.854 128.534 213.012 124.163C213.691 123.772 215.849 122.776 218.313 124.172C218.476 128.538 222.078 132.041 226.484 132.041C230.993 132.041 234.662 128.373 234.662 123.863C234.664 119.353 230.995 115.685 226.484 115.685ZM204.842 130.971C200.923 130.971 197.734 127.782 197.734 123.863C197.734 119.943 200.923 116.754 204.842 116.754C208.762 116.754 211.951 119.943 211.951 123.863C211.951 127.783 208.762 130.971 204.842 130.971ZM226.484 130.971C222.565 130.971 219.374 127.782 219.374 123.863C219.374 119.943 222.563 116.754 226.484 116.754C230.404 116.754 233.593 119.943 233.593 123.863C233.593 127.783 230.404 130.971 226.484 130.971Z" fill="white"/>
<path d="M226.49 129.094C225.846 129.094 225.324 128.571 225.324 127.927V125.747C225.324 125.103 225.846 124.58 226.49 124.58C227.135 124.58 227.657 125.103 227.657 125.747V127.927C227.657 128.571 227.135 129.094 226.49 129.094Z" fill="#311643"/>
<path d="M205.198 129.094C204.552 129.094 204.031 128.571 204.031 127.927V125.747C204.031 125.103 204.554 124.58 205.198 124.58C205.842 124.58 206.364 125.103 206.364 125.747V127.927C206.364 128.571 205.842 129.094 205.198 129.094Z" fill="#311643"/>
<path d="M213.53 142.955C211.446 142.955 210.028 142.171 209.169 141.458C208.085 140.558 207.635 139.577 207.616 139.535C207.495 139.265 207.615 138.948 207.884 138.827C208.153 138.706 208.47 138.826 208.591 139.093C208.652 139.226 210.132 142.328 214.43 141.831C214.725 141.797 214.99 142.007 215.024 142.3C215.058 142.594 214.848 142.86 214.554 142.894C214.195 142.937 213.854 142.955 213.53 142.955Z" fill="#311643"/>
<path d="M261.417 403.198L242.01 394.855L243.004 399.665L219.132 392.168V399.009C219.132 401.415 220.39 403.596 222.367 404.821L224.421 410.691C224.598 411.198 225.077 411.538 225.615 411.538C226.314 411.538 226.88 410.972 226.88 410.274V406.454L243.196 411.537H259.701C262.102 411.537 264.047 409.592 264.047 407.192C264.047 405.454 263.013 403.884 261.417 403.198Z" fill="#DCAAB1"/>
<path d="M303.738 403.198L284.331 394.855L285.326 399.665L261.453 392.168V399.009C261.453 401.415 262.711 403.596 264.689 404.821L266.742 410.691C266.919 411.198 267.398 411.538 267.936 411.538C268.635 411.538 269.201 410.972 269.201 410.274V406.454L285.517 411.537H302.023C304.423 411.537 306.368 409.592 306.368 407.192C306.367 405.454 305.333 403.884 303.738 403.198Z" fill="#DCAAB1"/>
<path d="M219.132 383.07L219.143 392.167L243.006 399.665L242.01 394.856L240.028 393.844L241.761 383.07H219.132Z" fill="#FCBEB7"/>
<path d="M261.453 383.07L261.463 392.167L285.326 399.665L284.331 394.856L282.348 393.847L284.082 383.07H261.453Z" fill="#FCBEB7"/>
<path d="M202.015 254.042V254.896C201.998 276.379 219.41 293.803 240.894 293.803H258.955L261.454 383.068H284.083L300.768 276.636C302.629 264.768 293.453 254.041 281.44 254.041H202.015V254.042Z" fill="#345881"/>
<path d="M257.4 283.311L258.953 293.805H255.657L257.4 283.311Z" fill="#4A5EA3"/>
<path d="M166.513 270.257C167.646 283.573 178.785 293.805 192.149 293.805H216.634L219.133 383.07H241.762L258.272 277.762C260.225 265.303 250.593 254.043 237.981 254.043H236.17L230.976 238.517H171.366L166.835 263.481C166.428 265.715 166.32 267.993 166.513 270.257Z" fill="#345881"/>
<path d="M244.372 174.234L242.787 171.766C240.728 168.562 237.831 166.012 234.439 164.373C233.494 163.918 232.512 163.533 231.497 163.224L213.841 157.848C213.841 158.486 212.73 162.189 210.707 165.849C208.54 169.768 205.326 173.637 201.308 173.637C196.074 173.637 191.288 169.757 187.792 165.849C184.246 161.883 182.031 157.887 182.031 157.887L166.254 165.197C159.797 168.189 155.043 173.945 153.325 180.852L146.293 203.325C145.089 207.171 144.477 211.177 144.477 215.207V217.069C144.477 221.899 148.393 225.815 153.224 225.815H170.043L171.366 238.516H230.975L245.999 176.766L244.372 174.234Z" fill="#DCAAB1"/>
<path d="M201.895 179.213C198.581 179.213 195.209 178.204 191.872 176.216C189.222 174.637 186.589 172.44 184.044 169.686C179.725 165.009 177.092 160.236 177.066 160.189L177.953 159.778C177.979 159.825 180.53 164.452 184.773 169.042C187.253 171.725 189.812 173.859 192.379 175.387C195.56 177.281 198.762 178.241 201.895 178.241C204.852 178.241 207.515 177.254 209.811 175.309C211.669 173.734 213.299 171.529 214.653 168.756C216.982 163.991 217.694 159.073 217.7 159.025L218.668 159.32C218.639 159.522 217.927 164.261 215.537 169.163C214.124 172.062 212.412 174.377 210.45 176.043C207.972 178.146 205.093 179.213 201.895 179.213Z" fill="white"/>
<path d="M171.365 238.516L168.981 251.652L232.344 242.611L230.974 238.516H171.365Z" fill="#4A5EA3"/>
<path d="M244.372 174.234C243.26 174.943 241.939 175.353 240.524 175.353C236.56 175.353 233.346 172.14 233.346 168.177C233.346 166.781 233.747 165.476 234.438 164.373C237.831 166.01 240.728 168.56 242.786 171.766L244.372 174.234Z" fill="#FF78BA"/>
<path d="M221.423 200.427C221.145 201.393 209.007 214.464 209.007 214.464L176.665 212.832L216.544 217.421L221.423 200.427Z" fill="#FF78BA"/>
<path d="M247.09 219.5C247.11 218.737 246.767 217.99 246.137 217.432L245.306 216.695L245.292 216.337C245.237 214.985 244.028 213.848 242.452 213.662L236.761 212.993L240.068 209.271C240.29 209.022 240.376 208.702 240.308 208.39C240.139 207.631 239.157 207.214 238.364 207.565L221.446 215.057L167.929 208.671L148.598 209.476C148.598 209.476 146.211 210.128 145.339 211.432C144.554 212.605 144.035 214.691 144.035 214.691C142.838 220.282 147.335 225.926 154.379 225.834L220.695 224.981L239.242 228.845L240.091 228.717C241.552 228.495 242.637 227.468 242.746 226.205L242.832 225.223L242.865 225.212C244.128 224.839 244.982 223.846 245.027 222.7L245.05 222.12L245.777 221.665C246.585 221.158 247.067 220.362 247.09 219.5Z" fill="#FCBEB7"/>
<path d="M153.609 223.815C156.493 223.815 158.83 221.477 158.83 218.593C158.83 215.709 156.493 213.372 153.609 213.372C150.725 213.372 148.388 215.709 148.388 218.593C148.388 221.477 150.725 223.815 153.609 223.815Z" fill="#F9AFAB"/>
<path d="M349.964 232.176L327.804 411.339H323.404L345.564 232.176H349.964Z" fill="#A392AD"/>
<path d="M408.191 411.339H403.791L384.833 258.063L381.631 232.176H386.031L389.187 257.695L408.191 411.339Z" fill="#A392AD"/>
<path d="M129.317 232.176L123.389 280.111L107.157 411.339H102.757L118.942 280.486L124.917 232.176H129.317Z" fill="#A392AD"/>
<path d="M187.544 411.339H183.144L166.463 276.478L160.984 232.176H165.384L170.818 276.111L187.544 411.339Z" fill="#A392AD"/>
<path d="M124.917 232.176H129.317L123.389 280.111L118.942 280.486L124.917 232.176Z" fill="#9E86AD"/>
<path d="M165.384 232.176L170.818 276.111L166.463 276.478L160.984 232.176H165.384Z" fill="#9E86AD"/>
<path d="M389.187 257.695L384.833 258.063L381.631 232.176H386.031L389.187 257.695Z" fill="#9E86AD"/>
<path d="M398.284 232.176H173.302V225.105H398.284C399.908 225.105 401.225 226.422 401.225 228.047V229.234C401.226 230.859 399.908 232.176 398.284 232.176Z" fill="#A392AD"/>
<path d="M173.303 232.176H113.775C112.15 232.176 110.834 230.859 110.834 229.234V228.047C110.834 226.422 112.15 225.105 113.775 225.105H173.303V232.176Z" fill="#A392AD"/>
<path d="M171.95 207.663H191.684C192.658 207.663 193.412 208.513 193.297 209.479L191.628 223.425C191.531 224.241 190.838 224.855 190.016 224.855H173.62C172.797 224.855 172.105 224.241 172.007 223.425L170.338 209.479C170.222 208.513 170.977 207.663 171.95 207.663Z" fill="#D2DCFF"/>
<path d="M188.592 201.97V195.63L184.798 202.838V191.131L181.817 198.502L178.836 191.131V202.838L175.042 195.63V201.97L169.514 193.083L171.949 207.662H181.817H191.684L194.12 193.083L188.592 201.97Z" fill="#A63D4C"/>
<path d="M330.909 206.742H207.444L221.209 132.539H344.674L330.909 206.742Z" fill="#311643"/>
<path d="M268.572 173.968H282.438L300.695 224.855H276.471L268.572 173.968Z" fill="#642D88"/>
<path d="M268.071 221.588H226.859C226.108 221.588 225.5 222.197 225.5 222.946V223.495C225.5 224.246 226.108 224.855 226.859 224.855H268.071C268.822 224.855 269.431 224.246 269.431 223.495V222.946C269.431 222.197 268.822 221.588 268.071 221.588Z" fill="#86A2E2"/>
<path d="M268.572 173.968V206.742H273.659L268.572 173.968Z" fill="#80569C"/>
<path fill-rule="evenodd" clip-rule="evenodd" d="M434.29 189.9C434.534 190.145 434.533 190.541 434.288 190.786L423.72 201.306L433.706 211.248C433.952 211.492 433.952 211.888 433.708 212.134C433.464 212.379 433.068 212.38 432.823 212.136L422.39 201.75C422.272 201.633 422.205 201.473 422.205 201.306C422.205 201.14 422.272 200.98 422.39 200.862L433.404 189.898C433.649 189.654 434.046 189.654 434.29 189.9Z" fill="#D3A977"/>
<path fill-rule="evenodd" clip-rule="evenodd" d="M457.31 189.9C457.554 189.654 457.951 189.654 458.196 189.898L469.21 200.862C469.328 200.98 469.395 201.14 469.395 201.306C469.395 201.473 469.328 201.633 469.21 201.75L458.778 212.136C458.532 212.38 458.136 212.379 457.892 212.134C457.648 211.888 457.649 211.492 457.894 211.248L467.881 201.306L457.312 190.786C457.067 190.541 457.066 190.145 457.31 189.9Z" fill="#D3A977"/>
<path fill-rule="evenodd" clip-rule="evenodd" d="M452.123 186.466C452.85 186.816 453.157 187.689 452.808 188.416L440.123 214.83C439.773 215.558 438.9 215.864 438.172 215.515C437.445 215.165 437.138 214.292 437.488 213.565L450.172 187.151C450.522 186.423 451.395 186.117 452.123 186.466Z" fill="#D3A977"/>
<path fill-rule="evenodd" clip-rule="evenodd" d="M63.0885 264.454C63.3326 264.699 63.3317 265.096 63.0865 265.34L52.5181 275.86L62.5048 285.802C62.75 286.046 62.7509 286.443 62.5068 286.688C62.2628 286.933 61.8662 286.934 61.621 286.69L51.1883 276.304C51.0702 276.187 51.0038 276.027 51.0038 275.86C51.0038 275.694 51.0702 275.534 51.1883 275.416L62.2026 264.452C62.4478 264.208 62.8444 264.209 63.0885 264.454Z" fill="#D3A977"/>
<path fill-rule="evenodd" clip-rule="evenodd" d="M86.1086 264.454C86.3527 264.209 86.7493 264.208 86.9945 264.452L98.0088 275.416C98.1269 275.534 98.1933 275.694 98.1933 275.86C98.1933 276.027 98.1269 276.187 98.0088 276.304L87.5761 286.69C87.3309 286.934 86.9343 286.933 86.6902 286.688C86.4462 286.443 86.4471 286.046 86.6922 285.802L96.679 275.86L86.1106 265.34C85.8654 265.096 85.8645 264.699 86.1086 264.454Z" fill="#D3A977"/>
<path fill-rule="evenodd" clip-rule="evenodd" d="M80.9212 261.02C81.6488 261.37 81.9555 262.243 81.606 262.971L68.9212 289.384C68.5717 290.112 67.6986 290.419 66.9709 290.069C66.2432 289.72 65.9366 288.846 66.2861 288.119L78.9709 261.705C79.3203 260.978 80.1935 260.671 80.9212 261.02Z" fill="#D3A977"/>
<path d="M478.632 257.849C478.661 257.75 478.765 257.692 478.865 257.721C481.203 258.404 482.546 260.854 481.863 263.193C481.834 263.292 481.729 263.349 481.63 263.32C481.53 263.291 481.473 263.187 481.502 263.087C482.127 260.948 480.899 258.707 478.76 258.082C478.66 258.053 478.603 257.949 478.632 257.849Z" fill="#D3A977"/>
<path d="M473.627 260.592C473.726 260.621 473.783 260.725 473.754 260.825C473.129 262.964 474.357 265.205 476.497 265.83C476.597 265.859 476.654 265.963 476.625 266.063C476.596 266.162 476.491 266.22 476.392 266.191C474.053 265.508 472.711 263.058 473.394 260.719C473.423 260.62 473.527 260.563 473.627 260.592Z" fill="#D3A977"/>
<path d="M479.537 264.304C479.995 263.932 480.349 263.423 480.527 262.813C480.992 261.221 480.078 259.553 478.486 259.088C476.893 258.624 475.226 259.537 474.761 261.13C474.296 262.722 475.21 264.39 476.802 264.855C477.655 265.104 478.531 264.957 479.231 264.522L483.003 269.857C483.062 269.941 483.18 269.961 483.264 269.902C483.349 269.842 483.369 269.725 483.309 269.64L479.537 264.304Z" fill="#D3A977"/>
<path d="M494.436 270.389C496.071 268.754 498.722 268.754 500.357 270.389C501.992 272.024 501.992 274.675 500.357 276.311C498.722 277.946 496.071 277.946 494.436 276.311C494.362 276.237 494.243 276.237 494.17 276.311C494.097 276.384 494.097 276.503 494.17 276.576C495.952 278.358 498.841 278.358 500.623 276.576C502.405 274.794 502.405 271.905 500.623 270.123C498.841 268.342 495.952 268.342 494.17 270.123C494.097 270.197 494.097 270.316 494.17 270.389C494.243 270.462 494.362 270.462 494.436 270.389Z" fill="#D3A977"/>
<path d="M499.521 275.474C500.694 274.301 500.694 272.399 499.521 271.226C498.348 270.053 496.446 270.053 495.272 271.226C494.715 271.783 494.422 272.505 494.395 273.235H490.153C490.049 273.235 489.965 273.319 489.965 273.423C489.965 273.527 490.049 273.611 490.153 273.611H494.404C494.463 274.291 494.752 274.954 495.272 275.474C496.446 276.648 498.348 276.648 499.521 275.474Z" fill="#D3A977"/>
<path d="M478.794 281.261C479.27 281.793 479.559 282.495 479.559 283.264C479.559 284.923 478.214 286.268 476.555 286.268C474.896 286.268 473.551 284.923 473.551 283.264C473.551 281.605 474.896 280.26 476.555 280.26C477.309 280.26 477.999 280.538 478.526 280.997L482.639 276.53C482.709 276.454 482.828 276.449 482.904 276.519C482.98 276.589 482.985 276.708 482.915 276.784L478.794 281.261Z" fill="#D3A977"/>
<path d="M472.499 283.264C472.499 281.024 474.315 279.209 476.555 279.209C476.659 279.209 476.743 279.125 476.743 279.021C476.743 278.917 476.659 278.833 476.555 278.833C474.108 278.833 472.124 280.817 472.124 283.264C472.124 285.712 474.108 287.696 476.555 287.696C479.002 287.696 480.986 285.712 480.986 283.264C480.986 283.161 480.902 283.077 480.799 283.077C480.695 283.077 480.611 283.161 480.611 283.264C480.611 285.504 478.795 287.32 476.555 287.32C474.315 287.32 472.499 285.504 472.499 283.264Z" fill="#D3A977"/>
<path d="M485.83 270.421C487.49 270.421 488.835 271.766 488.835 273.425C488.835 275.084 487.49 276.429 485.83 276.429C484.171 276.429 482.826 275.084 482.826 273.425C482.826 271.766 484.171 270.421 485.83 270.421Z" fill="#D3A977"/>
<path d="M76.1176 196.959C76.1176 197.228 76.3183 197.445 76.566 197.445C76.8136 197.445 77.0143 197.228 77.0143 196.959V190.485C77.0143 190.217 76.8136 190 76.566 190C76.3183 190 76.1176 190.217 76.1176 190.485V196.959Z" fill="#D3A977"/>
<path d="M71.3916 198.535C71.4799 198.692 71.6403 198.78 71.8052 198.78C71.8861 198.78 71.9681 198.759 72.0432 198.714C72.2714 198.579 72.3496 198.28 72.2178 198.047L69.0374 192.401C68.9058 192.167 68.6141 192.087 68.3858 192.222C68.1576 192.357 68.0794 192.656 68.2112 192.89L71.3916 198.535Z" fill="#D3A977"/>
<path d="M68.2701 202.426C68.1897 202.426 68.1081 202.404 68.0334 202.36L62.556 199.082C62.3291 198.946 62.2515 198.645 62.3824 198.41C62.5134 198.175 62.8034 198.094 63.0304 198.23L68.5077 201.508C68.7346 201.644 68.8123 201.945 68.6813 202.18C68.5935 202.337 68.434 202.426 68.2701 202.426Z" fill="#D3A977"/>
<path d="M60.6976 207.304H66.9787C67.2389 207.304 67.4498 207.097 67.4498 206.842C67.4498 206.586 67.2389 206.38 66.9787 206.38H60.6976C60.4374 206.38 60.2266 206.586 60.2266 206.842C60.2266 207.097 60.4374 207.304 60.6976 207.304Z" fill="#D3A977"/>
<path d="M62.7937 215.417C62.6297 215.417 62.4703 215.329 62.3824 215.171C62.2514 214.936 62.3292 214.635 62.556 214.499L68.0334 211.221C68.2603 211.085 68.5504 211.166 68.6813 211.401C68.8123 211.636 68.7346 211.937 68.5077 212.073L63.0304 215.351C62.9557 215.395 62.8741 215.417 62.7937 215.417Z" fill="#D3A977"/>
<path d="M68.3858 221.359C68.461 221.403 68.543 221.424 68.6239 221.424C68.7887 221.424 68.9491 221.337 69.0375 221.18L72.2179 215.534C72.3496 215.3 72.2714 215.001 72.0433 214.866C71.8149 214.731 71.5233 214.811 71.3916 215.045L68.2112 220.691C68.0794 220.925 68.1576 221.224 68.3858 221.359Z" fill="#D3A977"/>
<path d="M76.566 223.581C76.3183 223.581 76.1176 223.364 76.1176 223.096V216.621C76.1176 216.353 76.3183 216.136 76.566 216.136C76.8136 216.136 77.0143 216.353 77.0143 216.621V223.096C77.0143 223.364 76.8136 223.581 76.566 223.581Z" fill="#D3A977"/>
<path d="M83.9948 221.18C84.0832 221.337 84.2435 221.424 84.4084 221.424C84.4893 221.424 84.5714 221.403 84.6465 221.359C84.8747 221.224 84.9529 220.925 84.8211 220.691L81.6407 215.045C81.509 214.811 81.2173 214.731 80.989 214.866C80.7609 215.001 80.6827 215.3 80.8144 215.534L83.9948 221.18Z" fill="#D3A977"/>
<path d="M90.2386 215.417C90.1582 215.417 90.0766 215.395 90.0019 215.351L84.5246 212.073C84.2977 211.937 84.22 211.636 84.351 211.401C84.4819 211.166 84.772 211.085 84.9989 211.221L90.4763 214.499C90.7031 214.635 90.7808 214.936 90.6499 215.171C90.562 215.329 90.4025 215.417 90.2386 215.417Z" fill="#D3A977"/>
<path d="M86.0536 207.304H92.3346C92.5948 207.304 92.8057 207.097 92.8057 206.842C92.8057 206.586 92.5948 206.38 92.3346 206.38H86.0536C85.7934 206.38 85.5825 206.586 85.5825 206.842C85.5825 207.097 85.7934 207.304 86.0536 207.304Z" fill="#D3A977"/>
<path d="M84.7622 202.426C84.5982 202.426 84.4388 202.338 84.3509 202.18C84.22 201.945 84.2977 201.644 84.5246 201.508L90.0019 198.23C90.2289 198.094 90.5189 198.175 90.6499 198.41C90.7808 198.645 90.7031 198.946 90.4762 199.081L84.9989 202.36C84.9242 202.404 84.8426 202.426 84.7622 202.426Z" fill="#D3A977"/>
<path d="M80.9891 198.714C81.0642 198.759 81.1462 198.78 81.2271 198.78C81.392 198.78 81.5524 198.692 81.6407 198.535L84.8211 192.89C84.9528 192.656 84.8747 192.357 84.6465 192.222C84.4181 192.087 84.1265 192.167 83.9949 192.401L80.8145 198.047C80.6827 198.28 80.7609 198.579 80.9891 198.714Z" fill="#D3A977"/>
<path fill-rule="evenodd" clip-rule="evenodd" d="M30.1256 194.822C30.1867 194.822 30.2481 194.831 30.3079 194.85C30.4987 194.91 30.6476 195.061 30.7057 195.253L33.7917 205.479C33.9345 205.952 34.3512 206.025 34.4755 206.037C34.6001 206.048 35.0229 206.05 35.2471 205.609L49.3569 177.883C49.4964 177.609 49.47 177.299 49.2866 177.052C49.1033 176.806 48.8141 176.692 48.5122 176.748L17.4747 182.497C16.9922 182.586 16.8721 182.99 16.8468 183.112C16.8213 183.234 16.7703 183.652 17.1769 183.927L26.3093 190.11C26.4725 190.221 26.5718 190.404 26.576 190.601C26.58 190.799 26.4882 190.986 26.3297 191.103L13.3388 200.703C13.2035 200.803 13.1722 200.99 13.2678 201.129L16.1154 205.263C16.1816 205.359 16.2743 205.386 16.3238 205.394C16.373 205.401 16.4697 205.403 16.5613 205.331L29.7515 194.951C29.8595 194.866 29.9917 194.822 30.1256 194.822ZM34.5491 207.255C34.4889 207.255 34.4285 207.252 34.3678 207.246C33.5507 207.173 32.8692 206.618 32.6315 205.831L29.8024 196.456L17.3096 206.286C16.981 206.545 16.5556 206.658 16.1421 206.595C15.7288 206.532 15.3556 206.298 15.1182 205.953L12.2704 201.819C11.8006 201.137 11.954 200.217 12.6196 199.725L24.9196 190.636L16.4987 184.934C15.8125 184.47 15.4912 183.676 15.6603 182.864C15.8294 182.051 16.4402 181.453 17.2545 181.302L48.292 175.553C49.0462 175.413 49.7995 175.71 50.2582 176.326C50.7167 176.942 50.7851 177.75 50.4366 178.435L36.3268 206.161C35.9815 206.839 35.2969 207.255 34.5491 207.255Z" fill="#D3A977"/>
<g clip-path="url(#clip0_36:1193)">
<path fill-rule="evenodd" clip-rule="evenodd" d="M19.102 360.54C20.2483 360.79 21.1327 361.187 21.7545 361.731C22.376 362.276 22.8682 363.177 23.2301 364.434L25.6442 372.817C25.8675 373.592 26.1844 374.087 26.5949 374.302C27.0053 374.516 27.613 374.508 28.4178 374.277L29.5043 373.964C29.8797 373.856 30.2172 373.867 30.5164 373.998C30.8156 374.129 31.0461 374.475 31.2078 375.037C31.3309 375.464 31.3014 375.842 31.1201 376.17C30.9379 376.497 30.6727 376.711 30.3244 376.811L27.91 377.507C26.5953 377.885 25.5436 377.891 24.7558 377.525C23.9673 377.158 23.3731 376.279 22.9727 374.889L20.5239 366.386C19.7771 363.792 18.4203 362.663 16.4541 362.997C16.0093 363.067 15.6047 363.024 15.2406 362.869C14.8757 362.713 14.6286 362.408 14.4975 361.953C14.3667 361.499 14.4257 361.098 14.6743 360.751C14.9232 360.405 15.2675 360.139 15.7085 359.954C16.6892 359.527 17.2675 358.861 17.4427 357.956C17.6181 357.052 17.4745 355.797 17.0125 354.192L14.8524 346.692C14.4828 345.408 14.5733 344.311 15.1243 343.399C15.675 342.488 16.5141 341.87 17.6408 341.545L19.9747 340.873C20.323 340.773 20.6675 340.782 21.007 340.901C21.3464 341.021 21.597 341.361 21.7587 341.923C21.9585 342.416 21.9549 342.808 21.7486 343.099C21.5419 343.39 21.2237 343.597 20.7949 343.721L19.6279 344.057C18.8495 344.281 18.3524 344.598 18.1368 345.007C17.9204 345.417 17.9475 346.09 18.2169 347.026L20.5503 355.128C21.1278 357.134 20.6452 358.938 19.102 360.54Z" fill="#D3A977"/>
<path fill-rule="evenodd" clip-rule="evenodd" d="M35.8167 350.732L33.4834 342.629C33.2139 341.694 32.8788 341.109 32.4777 340.878C32.0772 340.645 31.4878 340.641 30.7094 340.866L29.5424 341.202C29.1136 341.325 28.734 341.319 28.4038 341.182C28.0744 341.045 27.8629 340.715 27.77 340.192C27.6083 339.63 27.6394 339.209 27.8633 338.927C28.0872 338.645 28.374 338.454 28.7223 338.354L31.0562 337.682C32.1829 337.357 33.2224 337.435 34.1733 337.913C35.125 338.393 35.7852 339.274 36.1548 340.557L38.3149 348.058C38.7769 349.662 39.3228 350.801 39.9522 351.474C40.5818 352.147 41.4258 352.403 42.4835 352.243C42.9555 352.166 43.3883 352.207 43.7832 352.368C44.1785 352.53 44.4414 352.838 44.5723 353.292C44.7033 353.747 44.6561 354.137 44.4299 354.463C44.2043 354.788 43.8846 355.04 43.4705 355.217C41.6277 355.979 41.0795 357.658 41.8263 360.251L44.2751 368.754C44.6755 370.144 44.6396 371.205 44.167 371.935C43.6947 372.664 42.8011 373.218 41.4863 373.597L39.072 374.292C38.7236 374.393 38.3852 374.352 38.0569 374.172C37.7289 373.991 37.5031 373.687 37.38 373.259C37.2183 372.698 37.2293 372.282 37.413 372.012C37.5966 371.742 37.8765 371.553 38.2519 371.445L39.3383 371.132C40.1431 370.9 40.6621 370.583 40.8956 370.184C41.1289 369.783 41.1339 369.195 40.9106 368.42L38.4965 360.037C38.1346 358.781 38.0724 357.756 38.3086 356.964C38.5457 356.172 39.0835 355.366 39.9215 354.545C37.7626 354.009 36.3942 352.737 35.8167 350.732Z" fill="#D3A977"/>
</g>
<g clip-path="url(#clip1_36:1193)">
<path fill-rule="evenodd" clip-rule="evenodd" d="M432.064 103.365C432.638 104.194 432.96 104.962 433.031 105.668C433.101 106.375 432.882 107.229 432.372 108.23L428.971 114.908C428.657 115.525 428.565 116.022 428.697 116.398C428.829 116.773 429.215 117.124 429.856 117.451L430.722 117.891C431.021 118.044 431.226 118.249 431.337 118.507C431.448 118.764 431.389 119.117 431.162 119.564C430.988 119.905 430.748 120.124 430.442 120.224C430.136 120.322 429.844 120.301 429.566 120.16L427.643 119.18C426.596 118.647 425.932 118.034 425.653 117.342C425.373 116.649 425.515 115.749 426.079 114.642L429.529 107.868C430.581 105.802 430.392 104.298 428.962 103.354C428.641 103.138 428.412 102.873 428.275 102.562C428.137 102.25 428.161 101.914 428.346 101.552C428.53 101.19 428.802 100.973 429.161 100.901C429.521 100.829 429.893 100.865 430.278 101.007C431.144 101.314 431.898 101.235 432.538 100.77C433.179 100.305 433.825 99.4331 434.476 98.155L437.519 92.1802C438.039 91.1577 438.74 90.5221 439.62 90.2727C440.5 90.0238 441.39 90.1277 442.287 90.5848L444.146 91.5317C444.424 91.673 444.635 91.8809 444.778 92.1549C444.921 92.429 444.878 92.7897 444.65 93.237C444.487 93.6636 444.255 93.9074 443.955 93.9691C443.654 94.031 443.333 93.9743 442.991 93.8003L442.061 93.3269C441.441 93.0111 440.944 92.9184 440.568 93.0491C440.192 93.1794 439.814 93.6177 439.434 94.3631L436.147 100.817C435.334 102.415 433.973 103.264 432.064 103.365Z" fill="#D3A977"/>
<path fill-rule="evenodd" clip-rule="evenodd" d="M448.309 107.011L451.596 100.557C451.975 99.8111 452.108 99.2479 451.992 98.8671C451.877 98.4864 451.509 98.1383 450.889 97.8225L449.959 97.3491C449.618 97.1751 449.383 96.9487 449.256 96.669C449.129 96.3901 449.19 96.0589 449.439 95.6757C449.667 95.2284 449.933 94.982 450.239 94.9365C450.545 94.891 450.837 94.9392 451.115 95.0805L452.974 96.0274C453.871 96.4845 454.478 97.1427 454.795 98.0008C455.111 98.8598 455.009 99.7999 454.488 100.822L451.445 106.797C450.794 108.075 450.469 109.11 450.469 109.902C450.47 110.693 450.849 111.349 451.607 111.869C451.949 112.097 452.196 112.377 452.349 112.71C452.503 113.043 452.487 113.391 452.303 113.753C452.118 114.115 451.86 114.332 451.527 114.404C451.195 114.476 450.846 114.446 450.483 114.315C448.879 113.713 447.55 114.445 446.498 116.51L443.048 123.284C442.484 124.391 441.84 125.036 441.115 125.217C440.391 125.398 439.505 125.222 438.458 124.688L436.535 123.709C436.257 123.567 436.068 123.344 435.968 123.038C435.868 122.732 435.905 122.409 436.078 122.068C436.306 121.621 436.557 121.366 436.831 121.304C437.104 121.243 437.391 121.288 437.69 121.44L438.555 121.881C439.196 122.208 439.708 122.313 440.089 122.199C440.47 122.085 440.818 121.719 441.132 121.101L444.533 114.423C445.043 113.422 445.605 112.743 446.218 112.384C446.831 112.026 447.642 111.835 448.649 111.811C447.608 110.209 447.495 108.608 448.309 107.011Z" fill="#D3A977"/>
</g>
<path fill-rule="evenodd" clip-rule="evenodd" d="M292.209 100.115L289.889 102.355C289.596 102.638 289.11 102.613 288.808 102.301L286.387 99.7935C286.085 99.4812 286.078 98.9945 286.37 98.712L288.691 96.4715C288.983 96.1891 289.469 96.2135 289.771 96.5259L292.192 99.0332C292.494 99.3455 292.501 99.8322 292.209 100.115Z" fill="#FAAD14"/>
<path fill-rule="evenodd" clip-rule="evenodd" d="M295.067 85.3451L295.124 88.5699C295.131 88.9765 294.781 89.3153 294.347 89.3228L290.862 89.3837C290.428 89.3913 290.067 89.0648 290.06 88.6583L290.004 85.4334C289.996 85.0269 290.346 84.688 290.78 84.6805L294.265 84.6196C294.699 84.6121 295.06 84.9385 295.067 85.3451Z" fill="#FAAD14"/>
<path fill-rule="evenodd" clip-rule="evenodd" d="M286.739 71.701L289.532 73.3137C289.884 73.517 289.995 73.991 289.777 74.367L288.035 77.3856C287.818 77.7617 287.352 77.903 287 77.6997L284.206 76.087C283.854 75.8837 283.744 75.4097 283.961 75.0337L285.704 72.015C285.921 71.639 286.387 71.4977 286.739 71.701Z" fill="#FAAD14"/>
<path fill-rule="evenodd" clip-rule="evenodd" d="M273.965 68.5362L277.186 68.705C277.592 68.7263 277.906 69.0985 277.883 69.532L277.701 73.0129C277.678 73.4465 277.327 73.7839 276.921 73.7626L273.7 73.5938C273.294 73.5725 272.981 73.2003 273.003 72.7667L273.186 69.2858C273.208 68.8523 273.559 68.5149 273.965 68.5362Z" fill="#FAAD14"/>
<path fill-rule="evenodd" clip-rule="evenodd" d="M259.929 74.9466L262.4 72.8734C262.712 72.612 263.195 72.6703 263.474 73.0029L265.714 75.6731C265.994 76.0057 265.967 76.4917 265.656 76.753L263.185 78.8262C262.873 79.0876 262.39 79.0293 262.111 78.6967L259.871 76.0265C259.591 75.694 259.618 75.2079 259.929 74.9466Z" fill="#FAAD14"/>
<path fill-rule="evenodd" clip-rule="evenodd" d="M253.685 89.19L254.245 86.0136C254.316 85.6132 254.724 85.3473 255.151 85.4227L258.584 86.0279C259.011 86.1033 259.304 86.4926 259.233 86.8931L258.673 90.0694C258.602 90.4699 258.195 90.7358 257.767 90.6604L254.334 90.0551C253.907 89.9798 253.615 89.5904 253.685 89.19Z" fill="#FAAD14"/>
<path d="M285.585 91.3201C285.585 85.0877 280.539 79.9824 274.315 79.9824C268.09 79.9824 263.044 85.0877 263.044 91.3201C263.044 93.7868 264.352 96.973 266.452 99.322C268.534 101.65 269.127 105.568 269.127 108.693L269.127 109.918L279.502 109.918L279.502 108.703C279.502 105.579 280.095 101.667 282.167 99.3323C284.274 96.959 285.585 93.4898 285.585 91.3201Z" fill="#F9C17E"/>
<path d="M283.73 91.2895C283.73 86.0838 279.516 81.8184 274.315 81.8184C269.113 81.8184 264.9 86.0833 264.9 91.2895C264.9 93.3518 265.992 96.0122 267.747 97.9746C269.486 99.9193 270.778 103.193 270.778 105.803L270.778 106.826L277.852 106.826L277.852 105.812C277.852 103.201 279.144 99.9337 280.875 97.983C282.635 96.0006 283.73 93.1026 283.73 91.2899L283.73 91.2895Z" fill="#D2B18A"/>
<path d="M277.175 115.635L271.454 115.635C271.254 115.635 271.072 115.505 270.963 115.291L270.185 113.274L278.445 113.274L277.667 115.291C277.558 115.505 277.376 115.635 277.176 115.635L277.175 115.635Z" fill="#393D65"/>
<path d="M278.564 105.257L270.065 105.257C269.433 105.257 268.921 105.769 268.921 106.401L268.921 112.999C268.921 113.631 269.433 114.143 270.065 114.143L278.564 114.143C279.196 114.143 279.708 113.631 279.708 112.999L279.708 106.401C279.708 105.769 279.196 105.257 278.564 105.257Z" fill="#204429"/>
<path fill-rule="evenodd" clip-rule="evenodd" d="M268.799 107.866C268.799 107.79 268.86 107.729 268.935 107.729L275.012 107.729C275.087 107.729 275.148 107.79 275.148 107.866C275.148 107.941 275.087 108.002 275.012 108.002L268.935 108.002C268.86 108.002 268.799 107.941 268.799 107.866Z" fill="white"/>
<path fill-rule="evenodd" clip-rule="evenodd" d="M268.799 111.816C268.799 111.741 268.86 111.68 268.935 111.68L275.012 111.68C275.087 111.68 275.148 111.741 275.148 111.816C275.148 111.891 275.087 111.952 275.012 111.952L268.935 111.952C268.86 111.952 268.799 111.891 268.799 111.816Z" fill="white"/>
<path fill-rule="evenodd" clip-rule="evenodd" d="M273.46 109.841C273.46 109.766 273.521 109.705 273.596 109.705L279.673 109.705C279.748 109.705 279.809 109.766 279.809 109.841C279.809 109.916 279.748 109.977 279.673 109.977L273.596 109.977C273.521 109.977 273.46 109.916 273.46 109.841Z" fill="white"/>
<path d="M275.083 86.7631L270.835 93.2447C270.606 93.5961 270.852 94.0282 271.264 94.0282L273.167 94.0282L270.827 98.4551C270.653 98.8131 271.103 99.1452 271.378 98.8621L277.742 92.4589C278.067 92.1257 277.836 91.5565 277.377 91.5565L274.499 91.5565L275.703 87.0458C275.797 86.6608 275.297 86.4349 275.083 86.7631Z" fill="white"/>
<g clip-path="url(#clip2_36:1193)">
<path d="M296.685 9.88124L266.451 7.2981C265.878 7.24915 265.374 7.68063 265.324 8.26184L263.503 29.5796C263.453 30.1608 263.877 30.6717 264.45 30.7206L294.684 33.3038C295.257 33.3527 295.762 32.9212 295.811 32.34L297.633 11.0222C297.682 10.441 297.258 9.93019 296.685 9.88124Z" fill="#DCAAB1"/>
<path d="M266.2 8.12359C265.726 8.08313 265.306 8.47512 265.261 8.99891L265.028 11.7924L279.597 22.9693C280.167 23.448 280.971 23.5167 281.613 23.1415L297.362 14.555L297.606 11.7624C297.65 11.2386 297.303 10.781 296.829 10.7405L266.2 8.12359Z" fill="#A63D4C"/>
<path d="M266.272 7.28277C265.798 7.24231 265.378 7.6343 265.333 8.15809L265.1 10.9516L279.669 22.1284C280.239 22.6072 281.043 22.6759 281.685 22.3007L297.433 13.7142L297.677 10.9216C297.722 10.3978 297.375 9.94014 296.901 9.89965L266.272 7.28277Z" fill="#DCAAB1"/>
</g>
<path d="M371.228 50.2261C359.079 50.2261 349.228 60.3249 349.228 72.7831C349.228 82.7493 355.532 91.2046 364.273 94.1873C365.372 94.3961 365.776 93.698 365.776 93.1022C365.776 92.5643 365.756 90.7874 365.746 88.9025C359.626 90.2671 358.334 86.2411 358.334 86.2411C357.333 83.6338 355.891 82.9406 355.891 82.9406C353.895 81.5406 356.042 81.5693 356.042 81.5693C358.251 81.7284 359.414 83.8938 359.414 83.8938C361.377 87.3423 364.561 86.3453 365.816 85.769C366.014 84.3111 366.584 83.316 367.213 82.7527C362.327 82.1823 357.19 80.2481 357.19 71.6049C357.19 69.1422 358.049 67.13 359.457 65.5503C359.228 64.9822 358.475 62.6879 359.67 59.5809C359.67 59.5809 361.517 58.9746 365.721 61.893C367.476 61.3933 369.358 61.1426 371.228 61.134C373.098 61.1426 374.981 61.3933 376.739 61.893C380.938 58.9746 382.783 59.5809 382.783 59.5809C383.981 62.6879 383.227 64.9822 382.999 65.5503C384.41 67.13 385.263 69.1422 385.263 71.6049C385.263 80.2687 380.116 82.1763 375.218 82.7347C376.007 83.4348 376.71 84.8075 376.71 86.912C376.71 89.9301 376.684 92.3592 376.684 93.1022C376.684 93.7025 377.08 94.4058 378.195 94.1843C386.932 91.1983 393.228 82.746 393.228 72.7831C393.228 60.3249 383.378 50.2261 371.228 50.2261" fill="#C8777B"/>
<path d="M357.625 82.4583C357.577 82.5693 357.405 82.6026 357.249 82.5264C357.09 82.4535 357 82.3022 357.052 82.1909C357.099 82.0766 357.271 82.0448 357.43 82.1214C357.59 82.1942 357.68 82.347 357.625 82.4583" fill="#C8777B"/>
<path d="M358.515 83.467C358.41 83.5657 358.205 83.5198 358.066 83.3638C357.923 83.2081 357.896 82.9998 358.002 82.8996C358.11 82.8009 358.308 82.8471 358.452 83.0028C358.596 83.1603 358.624 83.3671 358.515 83.467" fill="#C8777B"/>
<path d="M359.38 84.7532C359.246 84.8483 359.026 84.7592 358.89 84.5605C358.755 84.3619 358.755 84.1237 358.893 84.0283C359.029 83.9329 359.246 84.0187 359.384 84.2158C359.518 84.4178 359.518 84.656 359.38 84.7532" fill="#C8777B"/>
<path d="M360.567 85.9959C360.446 86.1309 360.19 86.0947 360.002 85.9105C359.81 85.7304 359.757 85.4748 359.878 85.3398C359.999 85.2045 360.257 85.2425 360.446 85.4253C360.637 85.605 360.695 85.8624 360.567 85.9959" fill="#C8777B"/>
<path d="M362.203 86.7178C362.15 86.8927 361.903 86.9723 361.654 86.8979C361.406 86.8214 361.243 86.6165 361.294 86.4397C361.345 86.2636 361.593 86.1808 361.844 86.2603C362.092 86.3365 362.255 86.5399 362.203 86.7178" fill="#C8777B"/>
<path d="M364 86.8518C364.006 87.036 363.796 87.1888 363.534 87.1921C363.272 87.198 363.06 87.049 363.057 86.8678C363.057 86.6817 363.263 86.5304 363.525 86.526C363.786 86.5208 364 86.6688 364 86.8518" fill="#C8777B"/>
<path d="M365.673 86.562C365.704 86.7418 365.522 86.9263 365.263 86.9755C365.008 87.0228 364.772 86.9119 364.74 86.7336C364.708 86.5494 364.893 86.3649 365.147 86.3172C365.407 86.2713 365.639 86.3793 365.673 86.562" fill="#C8777B"/>
<path d="M68.1294 118.034C66.4766 105.94 74.9416 94.795 87.0364 93.1422C99.1312 91.4895 110.276 99.9545 111.928 112.049C113.581 124.144 105.116 135.289 93.0215 136.941C80.9267 138.594 69.7821 130.129 68.1294 118.034Z" fill="#345881"/>
<path fill-rule="evenodd" clip-rule="evenodd" d="M82.7881 107.501C82.9838 108.932 82.0626 110.225 80.3321 110.462L80.3004 110.466C78.6342 110.694 77.4005 109.695 77.2049 108.264C77.0051 106.802 77.9629 105.536 79.6606 105.304C81.3584 105.072 82.5561 106.043 82.7881 107.501ZM83.0916 112.158L85.1292 127.07L80.1663 127.748L78.1287 112.836L83.0916 112.158ZM103.027 124.624L101.859 116.074C101.233 111.494 98.4936 109.697 95.2277 110.143C92.5927 110.503 91.6108 112.112 91.0908 113.217L90.8022 111.105L85.8387 111.783C86.0953 113.173 87.8763 126.695 87.8763 126.695L92.8398 126.016L91.7019 117.689C91.641 117.243 91.6124 116.794 91.7001 116.457C91.9371 115.518 92.6278 114.484 93.9989 114.297C95.7955 114.051 96.7005 115.321 96.9743 117.324L98.0645 125.302L103.027 124.624Z" fill="white"/>
<path d="M156.732 62.1064L163.262 61.0867L160.786 45.2277L150.365 39.688L153.497 59.7449C153.738 61.2911 155.186 62.3479 156.732 62.1064Z" fill="#345881"/>
<path d="M185.651 57.5904L192.182 56.5706C193.728 56.3291 194.785 54.8812 194.543 53.3349L191.411 33.278L183.175 41.7314L185.651 57.5904Z" fill="#656F29"/>
<path d="M181.281 29.604L183.175 41.7314L191.411 33.278L190.828 29.5465C190.288 26.0879 186.031 24.7291 183.587 27.2371L181.281 29.604Z" fill="#DCAAB1"/>
<path fill-rule="evenodd" clip-rule="evenodd" d="M160.786 45.228L158.892 33.1006L171.398 39.7483L181.281 29.6042L183.175 41.7316L173.292 51.8757L160.786 45.228Z" fill="#C8777B"/>
<path d="M149.782 35.9565L150.364 39.688L160.786 45.2277L158.892 33.1003L155.974 31.5492C152.882 29.9059 149.242 32.4978 149.782 35.9565Z" fill="#AE4147"/>
<defs>
<clipPath id="clip0_36:1193">
<rect width="47.7049" height="47.7049" fill="white" transform="translate(0 341.24) rotate(-16.0655)"/>
</clipPath>
<clipPath id="clip1_36:1193">
<rect width="40.9801" height="40.9801" fill="white" transform="translate(431.393 80.0479) rotate(26.9891)"/>
</clipPath>
<clipPath id="clip2_36:1193">
<rect width="37.0174" height="37.5539" fill="white" transform="translate(263.744) rotate(4.88339)"/>
</clipPath>
</defs>
</svg>
