<svg width="445" height="363" viewBox="0 0 445 363" fill="none" xmlns="http://www.w3.org/2000/svg">
<path d="M336.942 297.814C350.546 272.907 307.6 261.195 297.248 271.075C286.894 280.955 321.217 326.604 336.942 297.814Z" fill="#DCAAB1"/>
<path d="M354.996 290.212C381.693 290.212 369.611 242.462 358.197 242.462C343.886 242.462 324.152 290.212 354.996 290.212Z" fill="#DCAAB1"/>
<path d="M375.572 307.533C397.581 325.45 416.927 285.36 409.1 273.379C401.274 261.399 350.132 286.823 375.572 307.533Z" fill="#DCAAB1"/>
<path d="M347.506 319.388C343.791 310.792 338.353 302.783 331.345 295.584C319.421 283.339 306.88 277.595 306.754 277.539C306.38 277.371 305.94 277.537 305.772 277.909C305.604 278.282 305.77 278.722 306.142 278.891C306.265 278.947 318.589 284.598 330.317 296.658C337.19 303.725 342.519 311.581 346.155 320.007C346.568 320.963 346.951 321.929 347.32 322.901H348.907C348.469 321.72 348.006 320.548 347.506 319.388Z" fill="#A63D4C"/>
<path d="M357.533 252.254C357.582 251.847 357.291 251.478 356.884 251.429C356.476 251.379 356.108 251.671 356.059 252.077C356.011 252.483 352.268 284.482 352.459 322.899H353.942C353.752 284.582 357.485 252.658 357.533 252.254Z" fill="#A63D4C"/>
<path d="M401.687 278.744C401.459 278.404 400.998 278.311 400.658 278.539C400.551 278.61 389.843 285.813 378.827 297.66C372.826 304.112 366.006 312.763 361.009 322.901H362.668C367.552 313.209 374.107 304.917 379.89 298.696C390.79 286.968 401.376 279.844 401.483 279.773C401.823 279.545 401.915 279.084 401.687 278.744Z" fill="#A63D4C"/>
<path d="M353.943 322.901H352.46H348.908H347.321H326.613C325.817 322.901 325.253 323.679 325.499 324.436L326.806 328.446L327.467 330.476L336.93 359.511C337.187 360.299 337.922 360.833 338.75 360.833H372.86C373.69 360.833 374.424 360.299 374.681 359.511L384.145 330.476L384.806 328.446L386.113 324.436C386.361 323.679 385.796 322.901 385 322.901H362.664H361.005H353.943Z" fill="#AE4147"/>
<path d="M384.808 328.445L384.147 330.475H327.468L326.806 328.445H384.808Z" fill="#D2B18A"/>
<path d="M347.685 190.256V188.689C347.685 188.205 347.292 187.812 346.808 187.812H310.463C308.629 187.812 307.143 189.299 307.143 191.132V193.803C307.143 195.637 308.629 197.123 310.463 197.123H346.808C347.292 197.123 347.685 196.73 347.685 196.246V194.68C347.685 194.195 347.292 193.802 346.808 193.802H311.799C311.061 193.802 310.463 193.205 310.463 192.467C310.463 191.729 311.061 191.131 311.799 191.131H346.808C347.292 191.133 347.685 190.74 347.685 190.256Z" fill="#86A2E2"/>
<path d="M347.332 162.321V160.755C347.332 160.271 346.94 159.878 346.455 159.878H310.111C308.277 159.878 306.79 161.364 306.79 163.198V165.869C306.79 167.703 308.277 169.189 310.111 169.189H346.455C346.94 169.189 347.332 168.796 347.332 168.312V166.746C347.332 166.261 346.94 165.869 346.455 165.869H311.446C310.709 165.869 310.111 165.271 310.111 164.533C310.111 163.796 310.709 163.198 311.446 163.198H346.455C346.94 163.199 347.332 162.806 347.332 162.321Z" fill="#D2DCFF"/>
<path d="M345.088 180.944V179.378C345.088 178.893 344.695 178.501 344.211 178.501H313.06C311.226 178.501 309.74 179.988 309.74 181.821V184.492C309.74 186.326 311.226 187.812 313.06 187.812H344.211C344.696 187.812 345.088 187.419 345.088 186.935V185.369C345.088 184.885 344.695 184.492 344.211 184.492H314.396C313.658 184.492 313.06 183.894 313.06 183.156C313.06 182.419 313.658 181.821 314.396 181.821H344.211C344.695 181.821 345.088 181.429 345.088 180.944Z" fill="#AEC3FF"/>
<path d="M350.321 153.263V151.697C350.321 151.212 349.928 150.82 349.443 150.82H318.292C316.458 150.82 314.972 152.306 314.972 154.14V156.811C314.972 158.644 316.458 160.131 318.292 160.131H349.443C349.928 160.131 350.321 159.738 350.321 159.254V157.687C350.321 157.203 349.928 156.81 349.443 156.81H319.628C318.89 156.81 318.292 156.212 318.292 155.475C318.292 154.737 318.89 154.139 319.628 154.139H349.443C349.928 154.14 350.321 153.747 350.321 153.263Z" fill="#AEC3FF"/>
<path d="M343.933 181.821V184.492H314.395C313.658 184.492 313.06 183.894 313.06 183.156C313.06 182.419 313.658 181.821 314.395 181.821H343.933V181.821Z" fill="#EFF1FA"/>
<path d="M341.325 191.133V193.803H311.787C311.049 193.803 310.451 193.206 310.451 192.468C310.451 191.73 311.049 191.132 311.787 191.132H341.325V191.133Z" fill="#EFF1FA"/>
<path d="M340.972 163.199V165.869H311.434C310.696 165.869 310.098 165.271 310.098 164.534C310.098 163.796 310.696 163.198 311.434 163.198H340.972V163.199Z" fill="#EFF1FA"/>
<path d="M349.166 154.14V156.811H319.628C318.89 156.811 318.292 156.213 318.292 155.475C318.292 154.737 318.89 154.14 319.628 154.14H349.166V154.14Z" fill="#EFF1FA"/>
<path d="M350.321 171.633V170.067C350.321 169.582 349.928 169.19 349.443 169.19H318.292C316.458 169.19 314.972 170.677 314.972 172.51V175.181C314.972 177.015 316.458 178.501 318.292 178.501H349.443C349.928 178.501 350.321 178.108 350.321 177.624V176.058C350.321 175.573 349.928 175.18 349.443 175.18H319.628C318.89 175.18 318.292 174.583 318.292 173.845C318.292 173.107 318.89 172.509 319.628 172.509H349.443C349.928 172.51 350.321 172.117 350.321 171.633Z" fill="#86A2E2"/>
<path d="M349.166 172.51V175.18H319.628C318.89 175.18 318.292 174.583 318.292 173.845C318.292 173.107 318.89 172.509 319.628 172.509H349.166V172.51Z" fill="#EFF1FA"/>
<path d="M194.38 264.718L182.647 362H178.799L190.533 264.718H194.38Z" fill="#636F44"/>
<path d="M142.526 264.717L141.206 275.658L130.792 362H126.943L137.41 275.231L138.677 264.717H142.526Z" fill="#636F44"/>
<path d="M194.38 362H190.531L188.909 348.546L186.986 332.593L180.656 280.12L178.799 264.717H182.647L184.557 280.56L188.909 316.638L190.834 332.59L194.38 362Z" fill="#636F44"/>
<path d="M246.235 362H242.386L233.279 286.493L230.652 264.717H234.501L237.178 286.912L246.235 362Z" fill="#636F44"/>
<path d="M142.714 199.688H138.865V258.533H142.714V199.688Z" fill="#636F44"/>
<path d="M195.008 199.687H191.16V258.533H195.008V199.687Z" fill="#636F44"/>
<path d="M236.116 258.533H183.24C184.948 258.533 186.333 259.918 186.333 261.626C186.333 263.334 184.948 264.719 183.24 264.719H236.116C237.824 264.719 239.209 263.334 239.209 261.626C239.209 259.918 237.824 258.533 236.116 258.533Z" fill="#636F44"/>
<path d="M186.333 261.626C186.333 259.918 184.948 258.533 183.24 258.533H142.795H137.585C135.877 258.533 134.492 259.918 134.492 261.626C134.492 263.334 135.877 264.719 137.585 264.719H142.795H183.24C184.948 264.719 186.333 263.334 186.333 261.626Z" fill="#204429"/>
<path d="M198.153 155.402H135.721C133.341 155.402 131.411 157.333 131.411 159.713V195.378C131.411 197.758 133.341 199.688 135.721 199.688H198.153C200.534 199.688 202.464 197.758 202.464 195.378V159.713C202.463 157.333 200.534 155.402 198.153 155.402Z" fill="#636F44"/>
<path d="M142.526 264.717L141.206 275.658C139.815 275.501 138.545 275.358 137.41 275.231L138.678 264.717H142.526Z" fill="#656F29"/>
<path d="M182.647 264.717L184.557 280.56C183.25 280.413 181.949 280.265 180.656 280.12L178.798 264.717H182.647Z" fill="#656F29"/>
<path d="M237.178 286.912C235.936 286.779 234.634 286.639 233.279 286.491L230.653 264.717H234.502L237.178 286.912Z" fill="#656F29"/>
<path d="M138.865 199.687H142.714V207.815L138.865 207.388V199.687Z" fill="#656F29"/>
<path d="M195.008 199.687V213.604L191.16 213.178V199.687H195.008Z" fill="#656F29"/>
<path d="M243.561 362.017H239.705L230.583 286.385H230.582L227.952 264.574H231.807L234.489 286.805L243.561 362.017Z" fill="#D2DCFF"/>
<path d="M193.047 199.359H189.193V258.302H193.047V199.359Z" fill="#D2DCFF"/>
<path d="M235.286 286.727C234.042 286.594 232.739 286.454 231.381 286.307H231.38L228.75 264.496H232.606L235.286 286.727Z" fill="#AEC3FF"/>
<path d="M193.046 199.359V213.298L189.193 212.872V199.359H193.046Z" fill="#AEC3FF"/>
<path d="M200.586 95.9214C196.057 103.414 182.213 114.196 161.628 107.615V107.616C161.564 107.607 161.5 107.601 161.432 107.601C156.535 107.601 156.194 121.22 164.435 122.007C164.556 122.407 164.681 122.787 164.808 123.142V145.29H183.397V136.681C184.692 137.047 185.934 137.257 187.071 137.257C194.76 137.257 208.126 125.396 208.43 106.711C206.372 106.247 200.586 101.148 200.586 95.9214Z" fill="#FCBEB7"/>
<path d="M212.335 101.277C212.335 88.9707 201.481 79 185.205 79C171.679 79 167.03 86.4642 167.03 86.4642C167.03 86.4642 154.245 89.2272 154.245 105.115C154.245 119.883 154.245 145.292 154.245 145.292H175.253H176.324H191.839H208.704V112.204C210.038 110.568 212.335 106.929 212.335 101.277ZM187.072 137.257C185.935 137.257 184.693 137.047 183.397 136.682V145.29H164.809V123.143C164.682 122.788 164.557 122.407 164.436 122.008C156.195 121.221 156.536 107.601 161.433 107.601C161.5 107.601 161.565 107.607 161.629 107.616V107.615C182.214 114.196 196.058 103.413 200.587 95.9217C200.587 101.15 206.373 106.247 208.432 106.713C208.126 125.396 194.76 137.257 187.072 137.257Z" fill="#311643"/>
<path d="M150.249 143.658L164.809 136.914L172.798 137.124L183.397 137.624L198.628 142.249V161.683H150.249V143.658Z" fill="#FCBEB7"/>
<path d="M198.628 162.873V142.249L183.396 137.623V136.682C179.089 135.466 174.193 132.522 170.597 129.775L198.628 162.873Z" fill="#F9AFAB"/>
<path d="M173.469 122.486C176.27 122.486 178.54 120.216 178.54 117.415C178.54 114.614 176.27 112.344 173.469 112.344C170.668 112.344 168.398 114.614 168.398 117.415C168.398 120.216 170.668 122.486 173.469 122.486Z" fill="#F49795"/>
<path d="M207.778 113.205C207.135 116.611 206.057 119.717 204.696 122.48C202.015 122.347 199.882 120.13 199.882 117.415C199.882 114.614 202.152 112.345 204.953 112.345C205.998 112.345 206.97 112.661 207.778 113.205Z" fill="#F49795"/>
<path d="M199.2 101.993C195.498 101.993 192.44 104.808 192.055 108.41C190.043 107.463 188.266 107.976 187.328 108.407C186.94 104.807 183.885 101.993 180.184 101.993C176.222 101.993 172.998 105.217 172.998 109.179C172.998 113.141 176.222 116.365 180.184 116.365C184.058 116.365 187.225 113.283 187.363 109.443C187.96 109.099 189.856 108.224 192.021 109.451C192.164 113.287 195.329 116.365 199.2 116.365C203.162 116.365 206.386 113.141 206.386 109.179C206.387 105.217 203.163 101.993 199.2 101.993ZM180.184 115.424C176.741 115.424 173.939 112.622 173.939 109.179C173.939 105.734 176.741 102.932 180.184 102.932C183.629 102.932 186.431 105.734 186.431 109.179C186.431 112.624 183.629 115.424 180.184 115.424ZM199.2 115.424C195.756 115.424 192.953 112.622 192.953 109.179C192.953 105.734 195.755 102.932 199.2 102.932C202.644 102.932 205.446 105.734 205.446 109.179C205.446 112.624 202.644 115.424 199.2 115.424Z" fill="white"/>
<path d="M199.206 113.775C198.64 113.775 198.181 113.316 198.181 112.75V110.834C198.181 110.268 198.64 109.809 199.206 109.809C199.772 109.809 200.231 110.268 200.231 110.834V112.75C200.231 113.316 199.772 113.775 199.206 113.775Z" fill="#311643"/>
<path d="M180.497 113.775C179.93 113.775 179.472 113.316 179.472 112.75V110.834C179.472 110.268 179.931 109.809 180.497 109.809C181.063 109.809 181.522 110.268 181.522 110.834V112.75C181.522 113.316 181.063 113.775 180.497 113.775Z" fill="#311643"/>
<path d="M187.818 125.954C185.987 125.954 184.741 125.266 183.986 124.639C183.034 123.848 182.639 122.986 182.622 122.949C182.515 122.712 182.621 122.434 182.858 122.327C183.094 122.221 183.372 122.326 183.479 122.561C183.532 122.678 184.833 125.403 188.609 124.967C188.868 124.937 189.101 125.121 189.131 125.379C189.161 125.637 188.976 125.87 188.718 125.9C188.402 125.938 188.103 125.954 187.818 125.954Z" fill="#311643"/>
<path d="M229.894 354.614L212.842 347.284L213.716 351.51L192.74 344.923V350.933C192.74 353.047 193.845 354.963 195.583 356.04L197.388 361.197C197.543 361.643 197.964 361.942 198.437 361.942C199.051 361.942 199.548 361.445 199.548 360.831V357.474L213.884 361.941H228.386C230.495 361.941 232.205 360.232 232.205 358.123C232.205 356.596 231.296 355.217 229.894 354.614Z" fill="white"/>
<path d="M267.079 354.614L250.027 347.284L250.901 351.51L229.925 344.923V350.933C229.925 353.047 231.03 354.963 232.768 356.04L234.572 361.197C234.728 361.643 235.149 361.942 235.622 361.942C236.236 361.942 236.733 361.445 236.733 360.831V357.474L251.069 361.941H265.571C267.68 361.941 269.39 360.232 269.39 358.123C269.388 356.596 268.48 355.217 267.079 354.614Z" fill="white"/>
<path d="M192.74 336.928L192.75 344.922L213.717 351.51L212.842 347.284L211.101 346.395L212.623 336.928H192.74Z" fill="#FCBEB7"/>
<path d="M229.925 336.928L229.934 344.922L250.901 351.51L250.027 347.284L248.284 346.397L249.808 336.928H229.925Z" fill="#FCBEB7"/>
<path d="M177.701 223.559V224.31C177.686 243.186 192.984 258.495 211.861 258.495H227.73L229.926 336.927H249.809L264.47 243.411C266.104 232.983 258.042 223.558 247.487 223.558H177.701V223.559Z" fill="#345881"/>
<path d="M226.365 249.276L227.729 258.497H224.833L226.365 249.276Z" fill="#4A5EA3"/>
<path d="M146.507 237.806C147.502 249.507 157.29 258.497 169.032 258.497H190.545L192.741 336.929H212.624L227.13 244.401C228.846 233.453 220.383 223.561 209.302 223.561H207.711L203.147 209.918H150.772L146.79 231.853C146.432 233.815 146.337 235.818 146.507 237.806Z" fill="#345881"/>
<path d="M214.918 153.437L213.525 151.269C211.716 148.453 209.171 146.212 206.19 144.772C205.359 144.373 204.497 144.035 203.604 143.763L188.092 139.039C188.092 139.6 187.116 142.854 185.338 146.069C183.434 149.513 180.61 152.913 177.08 152.913C172.481 152.913 168.275 149.503 165.204 146.069C162.088 142.584 160.142 139.073 160.142 139.073L146.28 145.496C140.606 148.125 136.43 153.183 134.92 159.252L128.741 178.997C127.684 182.377 127.145 185.897 127.145 189.438V191.073C127.145 195.318 130.586 198.758 134.831 198.758H149.609L150.772 209.917H203.146L216.347 155.662L214.918 153.437Z" fill="#DCAAB1"/>
<path d="M177.595 157.812C174.683 157.812 171.721 156.925 168.788 155.178C166.461 153.791 164.147 151.861 161.911 149.44C158.115 145.331 155.803 141.137 155.78 141.096L156.559 140.735C156.582 140.777 158.824 144.842 162.551 148.874C164.73 151.232 166.978 153.107 169.234 154.45C172.029 156.114 174.842 156.957 177.595 156.957C180.193 156.957 182.534 156.09 184.551 154.381C186.183 152.997 187.615 151.06 188.805 148.623C190.851 144.437 191.477 140.116 191.482 140.073L192.332 140.332C192.307 140.51 191.682 144.674 189.582 148.981C188.34 151.528 186.836 153.562 185.112 155.026C182.934 156.874 180.405 157.812 177.595 157.812Z" fill="white"/>
<path d="M150.771 209.917L148.676 221.459L204.349 213.515L203.145 209.917H150.771Z" fill="#4A5EA3"/>
<path d="M214.918 153.437C213.94 154.06 212.78 154.42 211.536 154.42C208.054 154.42 205.23 151.597 205.23 148.115C205.23 146.888 205.582 145.741 206.189 144.772C209.171 146.211 211.716 148.451 213.523 151.268L214.918 153.437Z" fill="#FF78BA"/>
<path d="M194.753 176.451C194.509 177.3 183.844 188.785 183.844 188.785L155.427 187.35L190.467 191.383L194.753 176.451Z" fill="#FF78BA"/>
<path d="M217.306 193.209C217.323 192.539 217.021 191.883 216.468 191.392L215.738 190.744L215.726 190.43C215.677 189.242 214.615 188.243 213.231 188.08L208.23 187.491L211.136 184.222C211.331 184.003 211.407 183.722 211.346 183.447C211.199 182.781 210.335 182.414 209.638 182.723L194.773 189.305L147.752 183.695L130.767 184.402C130.767 184.402 128.669 184.974 127.903 186.12C127.213 187.151 126.758 188.984 126.758 188.984C125.706 193.896 129.657 198.855 135.846 198.775L194.114 198.025L210.41 201.42L211.156 201.307C212.439 201.113 213.393 200.211 213.489 199.101L213.564 198.237L213.593 198.228C214.703 197.9 215.453 197.028 215.493 196.021L215.513 195.511L216.152 195.111C216.861 194.666 217.286 193.966 217.306 193.209Z" fill="#FCBEB7"/>
<path d="M135.169 197C137.703 197 139.757 194.946 139.757 192.413C139.757 189.879 137.703 187.825 135.169 187.825C132.636 187.825 130.582 189.879 130.582 192.413C130.582 194.946 132.636 197 135.169 197Z" fill="#F9AFAB"/>
<path d="M307.493 204L288.022 361.42H284.156L303.627 204H307.493Z" fill="#A392AD"/>
<path d="M358.653 361.42H354.787L338.13 226.745L335.316 204H339.182L341.956 226.422L358.653 361.42Z" fill="#A392AD"/>
<path d="M113.623 204L108.414 246.117L94.1525 361.42H90.2864L104.507 246.447L109.757 204H113.623Z" fill="#A392AD"/>
<path d="M164.783 361.42H160.917L146.261 242.926L141.447 204H145.313L150.087 242.603L164.783 361.42Z" fill="#A392AD"/>
<path d="M109.757 204H113.623L108.414 246.117L104.507 246.447L109.757 204Z" fill="#9E86AD"/>
<path d="M145.313 204L150.087 242.603L146.261 242.926L141.447 204H145.313Z" fill="#9E86AD"/>
<path d="M341.956 226.422L338.13 226.745L335.316 204H339.182L341.956 226.422Z" fill="#9E86AD"/>
<path d="M349.948 203.999H152.271V197.787H349.948C351.375 197.787 352.532 198.944 352.532 200.371V201.415C352.534 202.842 351.375 203.999 349.948 203.999Z" fill="#A392AD"/>
<path d="M152.271 203.999H99.9673C98.54 203.999 97.383 202.842 97.383 201.415V200.371C97.383 198.944 98.54 197.787 99.9673 197.787H152.271V203.999Z" fill="#A392AD"/>
<path d="M151.082 182.461H168.422C169.277 182.461 169.939 183.208 169.839 184.057L168.372 196.31C168.286 197.027 167.678 197.567 166.955 197.567H152.549C151.826 197.567 151.218 197.027 151.132 196.31L149.666 184.057C149.564 183.208 150.227 182.461 151.082 182.461Z" fill="#D2DCFF"/>
<path d="M165.704 177.459V171.889L162.371 178.222V167.936L159.752 174.412L157.132 167.936V178.222L153.799 171.889V177.459L148.942 169.65L151.082 182.461H159.752H168.422L170.561 169.65L165.704 177.459Z" fill="#A63D4C"/>
<path d="M290.75 181.652H182.269L194.363 116.454H302.844L290.75 181.652Z" fill="#311643"/>
<path d="M235.978 152.855H248.162L264.202 197.566H242.919L235.978 152.855Z" fill="#642D88"/>
<path d="M235.538 194.696H199.328C198.668 194.696 198.133 195.231 198.133 195.89V196.372C198.133 197.032 198.668 197.567 199.328 197.567H235.538C236.198 197.567 236.733 197.032 236.733 196.372V195.89C236.733 195.231 236.198 194.696 235.538 194.696Z" fill="#86A2E2"/>
<path d="M235.978 152.855V181.652H240.448L235.978 152.855Z" fill="#80569C"/>
<path fill-rule="evenodd" clip-rule="evenodd" d="M381.585 166.854C381.799 167.069 381.799 167.418 381.583 167.632L372.297 176.876L381.072 185.611C381.288 185.825 381.288 186.174 381.074 186.389C380.859 186.605 380.511 186.606 380.295 186.391L371.129 177.266C371.025 177.163 370.967 177.022 370.967 176.876C370.967 176.729 371.025 176.589 371.129 176.486L380.807 166.852C381.022 166.637 381.37 166.638 381.585 166.854Z" fill="#D2B18A"/>
<path fill-rule="evenodd" clip-rule="evenodd" d="M401.811 166.854C402.026 166.638 402.374 166.637 402.59 166.852L412.267 176.486C412.371 176.589 412.429 176.729 412.429 176.876C412.429 177.022 412.371 177.163 412.267 177.266L403.101 186.391C402.885 186.606 402.537 186.605 402.322 186.389C402.108 186.174 402.109 185.825 402.324 185.611L411.099 176.876L401.813 167.632C401.598 167.418 401.597 167.069 401.811 166.854Z" fill="#D2B18A"/>
<path fill-rule="evenodd" clip-rule="evenodd" d="M397.253 163.837C397.893 164.144 398.162 164.911 397.855 165.55L386.71 188.759C386.403 189.398 385.636 189.667 384.996 189.36C384.357 189.053 384.087 188.286 384.394 187.647L395.54 164.439C395.847 163.799 396.614 163.53 397.253 163.837Z" fill="#D2B18A"/>
<path fill-rule="evenodd" clip-rule="evenodd" d="M55.4321 232.36C55.6465 232.575 55.6458 232.924 55.4303 233.138L46.1445 242.382L54.9193 251.117C55.1347 251.332 55.1355 251.68 54.921 251.896C54.7066 252.111 54.3581 252.112 54.1427 251.897L44.9761 242.772C44.8723 242.669 44.814 242.529 44.814 242.382C44.814 242.236 44.8723 242.095 44.9761 241.992L54.6537 232.358C54.8692 232.144 55.2176 232.145 55.4321 232.36Z" fill="#D2B18A"/>
<path fill-rule="evenodd" clip-rule="evenodd" d="M75.6585 232.36C75.8729 232.145 76.2214 232.144 76.4368 232.358L86.1145 241.992C86.2183 242.095 86.2766 242.236 86.2766 242.382C86.2766 242.529 86.2183 242.669 86.1145 242.772L76.9479 251.897C76.7325 252.112 76.384 252.111 76.1695 251.896C75.9551 251.68 75.9559 251.332 76.1713 251.117L84.9461 242.382L75.6602 233.138C75.4448 232.924 75.444 232.575 75.6585 232.36Z" fill="#D2B18A"/>
<path fill-rule="evenodd" clip-rule="evenodd" d="M71.1006 229.343C71.74 229.65 72.0094 230.417 71.7023 231.057L60.5569 254.265C60.2499 254.904 59.4827 255.174 58.8433 254.867C58.204 254.56 57.9346 253.792 58.2416 253.153L69.387 229.945C69.694 229.306 70.4612 229.036 71.1006 229.343Z" fill="#D2B18A"/>
<path d="M420.545 226.556C420.571 226.469 420.663 226.419 420.75 226.444C422.805 227.044 423.984 229.196 423.384 231.251C423.359 231.339 423.267 231.389 423.18 231.363C423.092 231.338 423.042 231.246 423.067 231.159C423.616 229.279 422.537 227.31 420.658 226.761C420.57 226.735 420.52 226.644 420.545 226.556Z" fill="#D2B18A"/>
<path d="M416.148 228.966C416.235 228.992 416.285 229.083 416.26 229.171C415.711 231.051 416.79 233.02 418.67 233.569C418.757 233.594 418.807 233.686 418.782 233.773C418.756 233.861 418.665 233.911 418.577 233.885C416.522 233.285 415.343 231.133 415.943 229.078C415.968 228.991 416.06 228.941 416.148 228.966Z" fill="#D2B18A"/>
<path d="M421.34 232.228C421.743 231.901 422.054 231.453 422.21 230.918C422.619 229.519 421.816 228.054 420.417 227.645C419.018 227.237 417.553 228.04 417.144 229.439C416.736 230.838 417.539 232.303 418.938 232.712C419.688 232.931 420.457 232.801 421.072 232.419L424.386 237.107C424.438 237.181 424.541 237.199 424.616 237.146C424.69 237.094 424.708 236.991 424.655 236.916L421.34 232.228Z" fill="#D2B18A"/>
<path d="M434.431 237.574C435.868 236.138 438.197 236.138 439.634 237.574C441.071 239.011 441.071 241.341 439.634 242.777C438.197 244.214 435.868 244.214 434.431 242.777C434.367 242.713 434.262 242.713 434.198 242.777C434.133 242.842 434.133 242.946 434.198 243.011C435.764 244.576 438.302 244.576 439.867 243.011C441.433 241.445 441.433 238.907 439.867 237.341C438.302 235.775 435.764 235.775 434.198 237.341C434.133 237.406 434.133 237.51 434.198 237.574C434.262 237.639 434.367 237.639 434.431 237.574Z" fill="#D2B18A"/>
<path d="M438.899 242.043C439.93 241.012 439.93 239.34 438.899 238.31C437.869 237.279 436.197 237.279 435.166 238.31C434.677 238.799 434.42 239.434 434.395 240.075H430.668C430.577 240.075 430.503 240.149 430.503 240.24C430.503 240.331 430.577 240.405 430.668 240.405H434.403C434.455 241.002 434.709 241.586 435.166 242.043C436.197 243.073 437.869 243.073 438.899 242.043Z" fill="#D2B18A"/>
<path d="M420.688 247.127C421.106 247.594 421.36 248.211 421.36 248.887C421.36 250.345 420.178 251.527 418.72 251.527C417.263 251.527 416.081 250.345 416.081 248.887C416.081 247.429 417.263 246.247 418.72 246.247C419.383 246.247 419.989 246.492 420.453 246.895L424.066 242.97C424.128 242.903 424.232 242.899 424.299 242.96C424.366 243.022 424.37 243.126 424.309 243.193L420.688 247.127Z" fill="#D2B18A"/>
<path d="M415.157 248.887C415.157 246.919 416.753 245.324 418.721 245.324C418.812 245.324 418.886 245.25 418.886 245.159C418.886 245.068 418.812 244.994 418.721 244.994C416.57 244.994 414.827 246.737 414.827 248.887C414.827 251.038 416.57 252.781 418.721 252.781C420.871 252.781 422.614 251.038 422.614 248.887C422.614 248.796 422.54 248.722 422.449 248.722C422.358 248.722 422.284 248.796 422.284 248.887C422.284 250.855 420.689 252.451 418.721 252.451C416.753 252.451 415.157 250.855 415.157 248.887Z" fill="#D2B18A"/>
<path d="M426.87 237.602C428.328 237.602 429.51 238.784 429.51 240.242C429.51 241.7 428.328 242.882 426.87 242.882C425.412 242.882 424.231 241.7 424.231 240.242C424.231 238.784 425.412 237.602 426.87 237.602Z" fill="#D2B18A"/>
<path d="M66.8801 173.057C66.8801 173.292 67.0565 173.483 67.2741 173.483C67.4916 173.483 67.668 173.292 67.668 173.057V167.368C67.668 167.132 67.4916 166.941 67.2741 166.941C67.0565 166.941 66.8801 167.132 66.8801 167.368V173.057Z" fill="#D2B18A"/>
<path d="M62.7276 174.441C62.8053 174.579 62.9461 174.656 63.091 174.656C63.1621 174.656 63.2342 174.638 63.3002 174.599C63.5007 174.48 63.5694 174.217 63.4536 174.012L60.6592 169.051C60.5435 168.846 60.2872 168.775 60.0866 168.894C59.8862 169.013 59.8175 169.275 59.9332 169.481L62.7276 174.441Z" fill="#D2B18A"/>
<path d="M59.985 177.86C59.9143 177.86 59.8426 177.841 59.777 177.802L54.9644 174.921C54.765 174.802 54.6968 174.538 54.8118 174.331C54.9269 174.124 55.1818 174.054 55.3812 174.173L60.1938 177.053C60.3931 177.173 60.4614 177.437 60.3463 177.643C60.2691 177.782 60.129 177.86 59.985 177.86Z" fill="#D2B18A"/>
<path d="M53.3315 182.146H58.8503C59.0789 182.146 59.2642 181.964 59.2642 181.74C59.2642 181.515 59.0789 181.334 58.8503 181.334H53.3315C53.1029 181.334 52.9176 181.515 52.9176 181.74C52.9176 181.964 53.1029 182.146 53.3315 182.146Z" fill="#D2B18A"/>
<path d="M55.1732 189.274C55.0291 189.274 54.889 189.197 54.8118 189.058C54.6967 188.851 54.7651 188.587 54.9644 188.468L59.777 185.587C59.9764 185.468 60.2312 185.539 60.3463 185.745C60.4614 185.952 60.3931 186.216 60.1938 186.336L55.3812 189.216C55.3155 189.255 55.2438 189.274 55.1732 189.274Z" fill="#D2B18A"/>
<path d="M60.0866 194.495C60.1527 194.534 60.2247 194.553 60.2958 194.553C60.4407 194.553 60.5816 194.476 60.6592 194.338L63.4536 189.377C63.5694 189.172 63.5007 188.909 63.3002 188.79C63.0996 188.672 62.8434 188.742 62.7277 188.948L59.9332 193.908C59.8174 194.114 59.8861 194.376 60.0866 194.495Z" fill="#D2B18A"/>
<path d="M67.2741 196.448C67.0565 196.448 66.8801 196.257 66.8801 196.021V190.332C66.8801 190.097 67.0565 189.906 67.2741 189.906C67.4916 189.906 67.668 190.097 67.668 190.332V196.021C67.668 196.257 67.4916 196.448 67.2741 196.448Z" fill="#D2B18A"/>
<path d="M73.8014 194.338C73.879 194.476 74.0199 194.553 74.1648 194.553C74.2358 194.553 74.3079 194.534 74.3739 194.495C74.5744 194.376 74.6431 194.114 74.5273 193.908L71.7329 188.947C71.6172 188.742 71.3609 188.672 71.1603 188.79C70.9599 188.909 70.8912 189.172 71.0069 189.377L73.8014 194.338Z" fill="#D2B18A"/>
<path d="M79.2874 189.274C79.2167 189.274 79.145 189.255 79.0794 189.216L74.2668 186.336C74.0674 186.216 73.9992 185.952 74.1143 185.745C74.2293 185.539 74.4842 185.468 74.6836 185.587L79.4962 188.468C79.6955 188.587 79.7638 188.851 79.6488 189.058C79.5716 189.197 79.4314 189.274 79.2874 189.274Z" fill="#D2B18A"/>
<path d="M75.6103 182.146H81.1291C81.3577 182.146 81.543 181.964 81.543 181.74C81.543 181.515 81.3577 181.334 81.1291 181.334H75.6103C75.3817 181.334 75.1964 181.515 75.1964 181.74C75.1964 181.964 75.3817 182.146 75.6103 182.146Z" fill="#D2B18A"/>
<path d="M74.4756 177.86C74.3315 177.86 74.1915 177.782 74.1143 177.643C73.9992 177.437 74.0675 177.173 74.2668 177.053L79.0794 174.173C79.2789 174.054 79.5337 174.124 79.6487 174.331C79.7638 174.538 79.6956 174.802 79.4962 174.921L74.6836 177.802C74.618 177.841 74.5463 177.86 74.4756 177.86Z" fill="#D2B18A"/>
<path d="M71.1604 174.599C71.2264 174.638 71.2985 174.656 71.3695 174.656C71.5144 174.656 71.6553 174.579 71.733 174.441L74.5274 169.481C74.6431 169.275 74.5744 169.013 74.374 168.894C74.1733 168.775 73.9171 168.846 73.8014 169.051L71.007 174.012C70.8912 174.217 70.9599 174.48 71.1604 174.599Z" fill="#D2B18A"/>
<path fill-rule="evenodd" clip-rule="evenodd" d="M26.4695 171.178C26.5232 171.178 26.5772 171.186 26.6297 171.203C26.7974 171.256 26.9282 171.389 26.9792 171.558L29.6908 180.542C29.8162 180.958 30.1824 181.022 30.2916 181.032C30.401 181.042 30.7725 181.044 30.9695 180.656L43.3669 156.295C43.4895 156.055 43.4663 155.782 43.3052 155.565C43.1441 155.349 42.89 155.249 42.6247 155.298L15.3539 160.349C14.93 160.428 14.8245 160.783 14.8022 160.89C14.7798 160.997 14.735 161.364 15.0923 161.606L23.1163 167.039C23.2597 167.136 23.3471 167.297 23.3507 167.47C23.3543 167.643 23.2736 167.808 23.1343 167.911L11.72 176.346C11.6011 176.434 11.5736 176.598 11.6576 176.72L14.1596 180.353C14.2177 180.437 14.2993 180.461 14.3427 180.467C14.386 180.473 14.4709 180.475 14.5514 180.412L26.1408 171.292C26.2357 171.218 26.3519 171.178 26.4695 171.178ZM30.3562 182.102C30.3033 182.102 30.2503 182.1 30.1969 182.095C29.479 182.031 28.8802 181.543 28.6714 180.851L26.1856 172.614L15.2089 181.252C14.9202 181.479 14.5464 181.578 14.1831 181.523C13.82 181.467 13.492 181.262 13.2834 180.959L10.7813 177.327C10.3685 176.727 10.5032 175.919 11.0881 175.487L21.8953 167.5L14.4964 162.491C13.8934 162.083 13.6111 161.386 13.7597 160.672C13.9083 159.958 14.445 159.432 15.1605 159.3L42.4313 154.248C43.094 154.125 43.7558 154.386 44.1588 154.927C44.5617 155.468 44.6218 156.179 44.3156 156.78L31.9182 181.141C31.6148 181.737 31.0133 182.102 30.3562 182.102Z" fill="#D2B18A"/>
<g clip-path="url(#clip0)">
<path fill-rule="evenodd" clip-rule="evenodd" d="M16.7838 316.785C17.791 317.005 18.568 317.353 19.1144 317.832C19.6604 318.311 20.0929 319.102 20.4109 320.206L22.532 327.572C22.7282 328.253 23.0067 328.688 23.3673 328.877C23.7279 329.065 24.2619 329.058 24.969 328.855L25.9237 328.58C26.2535 328.485 26.5501 328.495 26.813 328.61C27.0759 328.725 27.2784 329.029 27.4205 329.523C27.5286 329.898 27.5027 330.23 27.3433 330.518C27.1833 330.806 26.9503 330.994 26.6442 331.082L24.5229 331.693C23.3677 332.026 22.4437 332.031 21.7515 331.709C21.0586 331.386 20.5365 330.614 20.1848 329.393L18.0332 321.921C17.377 319.643 16.1848 318.65 14.4572 318.944C14.0664 319.006 13.7109 318.968 13.391 318.831C13.0704 318.695 12.8532 318.427 12.7381 318.027C12.6232 317.628 12.675 317.276 12.8934 316.971C13.1121 316.666 13.4146 316.433 13.8021 316.27C14.6638 315.895 15.1719 315.31 15.3258 314.515C15.4799 313.72 15.3538 312.618 14.9478 311.208L13.0499 304.618C12.7252 303.49 12.8047 302.526 13.2888 301.724C13.7726 300.924 14.5099 300.381 15.4999 300.095L17.5506 299.505C17.8566 299.417 18.1593 299.425 18.4576 299.53C18.7558 299.635 18.976 299.934 19.1181 300.427C19.2936 300.86 19.2905 301.205 19.1092 301.46C18.9276 301.717 18.648 301.899 18.2712 302.007L17.2459 302.302C16.5619 302.499 16.1252 302.778 15.9357 303.138C15.7456 303.498 15.7694 304.089 16.0061 304.911L18.0563 312.03C18.5637 313.792 18.1397 315.378 16.7838 316.785Z" fill="#D2B18A"/>
<path fill-rule="evenodd" clip-rule="evenodd" d="M31.47 308.167L29.4198 301.048C29.183 300.226 28.8887 299.713 28.5362 299.509C28.1843 299.305 27.6664 299.301 26.9825 299.498L25.9572 299.794C25.5804 299.902 25.2468 299.897 24.9567 299.776C24.6673 299.656 24.4815 299.366 24.3998 298.906C24.2577 298.413 24.2851 298.043 24.4818 297.795C24.6785 297.548 24.9305 297.38 25.2366 297.291L27.2872 296.701C28.2772 296.416 29.1906 296.484 30.026 296.904C30.8622 297.326 31.4423 298.1 31.7671 299.227L33.665 305.818C34.0709 307.227 34.5506 308.228 35.1036 308.819C35.6568 309.411 36.3984 309.636 37.3277 309.495C37.7424 309.427 38.1227 309.464 38.4697 309.605C38.817 309.747 39.048 310.018 39.163 310.417C39.2781 310.817 39.2367 311.159 39.0379 311.445C38.8397 311.731 38.5588 311.952 38.1949 312.108C36.5758 312.778 36.0941 314.253 36.7503 316.531L38.9019 324.003C39.2537 325.224 39.2222 326.156 38.8069 326.797C38.3919 327.438 37.6067 327.925 36.4516 328.258L34.3302 328.868C34.0242 328.957 33.7268 328.921 33.4383 328.763C33.1502 328.604 32.9517 328.336 32.8436 327.961C32.7015 327.468 32.7112 327.102 32.8725 326.865C33.0339 326.628 33.2798 326.461 33.6096 326.366L34.5642 326.091C35.2714 325.888 35.7274 325.61 35.9325 325.258C36.1375 324.907 36.1419 324.39 35.9457 323.709L33.8246 316.343C33.5066 315.239 33.4519 314.339 33.6595 313.643C33.8678 312.947 34.3403 312.239 35.0767 311.517C33.1797 311.046 31.9774 309.929 31.47 308.167Z" fill="#D2B18A"/>
</g>
<g clip-path="url(#clip1)">
<path fill-rule="evenodd" clip-rule="evenodd" d="M379.629 90.821C380.133 91.5492 380.416 92.2238 380.479 92.8445C380.54 93.4654 380.348 94.2159 379.9 95.0954L376.912 100.963C376.635 101.505 376.555 101.942 376.671 102.272C376.786 102.602 377.126 102.91 377.689 103.197L378.449 103.584C378.712 103.718 378.893 103.898 378.99 104.125C379.087 104.351 379.036 104.661 378.836 105.054C378.684 105.353 378.473 105.546 378.204 105.634C377.935 105.72 377.678 105.702 377.434 105.578L375.744 104.717C374.824 104.248 374.241 103.71 373.996 103.102C373.75 102.493 373.875 101.702 374.37 100.729L377.401 94.7775C378.326 92.9624 378.16 91.6403 376.903 90.8114C376.621 90.6211 376.42 90.3889 376.3 90.1154C376.179 89.8415 376.2 89.546 376.362 89.2276C376.524 88.9096 376.763 88.7192 377.079 88.6557C377.394 88.5929 377.721 88.6239 378.06 88.7489C378.821 89.0188 379.483 88.9494 380.046 88.5406C380.608 88.1323 381.176 87.3661 381.748 86.2432L384.421 80.9934C384.879 80.0951 385.494 79.5366 386.268 79.3175C387.041 79.0988 387.823 79.1901 388.611 79.5917L390.245 80.4237C390.489 80.5478 390.674 80.7305 390.8 80.9713C390.925 81.2121 390.888 81.529 390.688 81.922C390.544 82.2968 390.34 82.5111 390.076 82.5652C389.812 82.6196 389.53 82.5698 389.23 82.4169L388.413 82.001C387.868 81.7235 387.431 81.6421 387.101 81.7569C386.77 81.8714 386.438 82.2565 386.105 82.9114L383.217 88.5823C382.502 89.986 381.306 90.7325 379.629 90.821Z" fill="#D2B18A"/>
<path fill-rule="evenodd" clip-rule="evenodd" d="M393.902 94.0241L396.79 88.3533C397.124 87.6983 397.24 87.2034 397.138 86.8688C397.037 86.5344 396.714 86.2285 396.169 85.951L395.352 85.5351C395.052 85.3822 394.846 85.1833 394.734 84.9375C394.623 84.6924 394.677 84.4015 394.895 84.0648C395.095 83.6718 395.33 83.4553 395.598 83.4153C395.867 83.3752 396.124 83.4176 396.367 83.5418L398.001 84.3737C398.79 84.7754 399.323 85.3537 399.601 86.1077C399.879 86.8624 399.789 87.6885 399.331 88.5868L396.658 93.8366C396.086 94.9595 395.8 95.8691 395.801 96.5643C395.801 97.26 396.134 97.8364 396.8 98.2931C397.1 98.4935 397.317 98.7395 397.452 99.0318C397.587 99.3248 397.573 99.6299 397.411 99.948C397.249 100.266 397.023 100.457 396.73 100.52C396.438 100.583 396.132 100.557 395.812 100.442C394.403 99.9127 393.236 100.556 392.311 102.371L389.28 108.323C388.785 109.295 388.219 109.862 387.582 110.021C386.946 110.18 386.167 110.025 385.247 109.556L383.557 108.696C383.313 108.572 383.147 108.375 383.059 108.106C382.971 107.837 383.004 107.553 383.156 107.254C383.356 106.861 383.576 106.638 383.817 106.583C384.057 106.529 384.309 106.569 384.572 106.703L385.332 107.09C385.896 107.377 386.345 107.47 386.68 107.369C387.015 107.269 387.32 106.947 387.597 106.405L390.585 100.537C391.033 99.6577 391.527 99.0605 392.065 98.7453C392.604 98.4308 393.316 98.2632 394.201 98.2422C393.287 96.8341 393.187 95.4278 393.902 94.0241Z" fill="#D2B18A"/>
</g>
<path fill-rule="evenodd" clip-rule="evenodd" d="M256.746 87.9653L254.708 89.9339C254.451 90.182 254.024 90.1605 253.759 89.8861L251.631 87.6831C251.366 87.4086 251.36 86.981 251.617 86.7329L253.655 84.7643C253.912 84.5161 254.339 84.5376 254.604 84.812L256.732 87.0151C256.997 87.2895 257.003 87.7171 256.746 87.9653Z" fill="#FAAD14"/>
<path fill-rule="evenodd" clip-rule="evenodd" d="M259.258 74.9877L259.308 77.8212C259.314 78.1784 259.007 78.4761 258.625 78.4828L255.563 78.5362C255.182 78.5429 254.865 78.2561 254.858 77.8989L254.809 75.0654C254.803 74.7082 255.11 74.4105 255.491 74.4038L258.553 74.3503C258.935 74.3437 259.252 74.6305 259.258 74.9877Z" fill="#FAAD14"/>
<path fill-rule="evenodd" clip-rule="evenodd" d="M251.94 62.9997L254.394 64.4167C254.704 64.5953 254.801 65.0118 254.61 65.3422L253.079 67.9945C252.888 68.3249 252.479 68.4491 252.169 68.2704L249.715 66.8535C249.406 66.6748 249.309 66.2583 249.499 65.9279L251.031 63.2756C251.221 62.9453 251.631 62.8211 251.94 62.9997Z" fill="#FAAD14"/>
<path fill-rule="evenodd" clip-rule="evenodd" d="M240.717 60.2186L243.547 60.3669C243.904 60.3856 244.179 60.7126 244.159 61.0936L243.999 64.152C243.979 64.533 243.671 64.8294 243.314 64.8107L240.484 64.6624C240.127 64.6437 239.852 64.3167 239.872 63.9357L240.032 60.8773C240.052 60.4963 240.36 60.1999 240.717 60.2186Z" fill="#FAAD14"/>
<path fill-rule="evenodd" clip-rule="evenodd" d="M228.384 65.8513L230.555 64.0297C230.829 63.8 231.254 63.8513 231.499 64.1435L233.467 66.4896C233.713 66.7819 233.689 67.2089 233.416 67.4385L231.245 69.2601C230.971 69.4898 230.547 69.4386 230.301 69.1463L228.333 66.8002C228.088 66.508 228.111 66.0809 228.384 65.8513Z" fill="#FAAD14"/>
<path fill-rule="evenodd" clip-rule="evenodd" d="M222.898 78.3663L223.39 75.5755C223.452 75.2236 223.81 74.99 224.186 75.0562L227.202 75.588C227.578 75.6543 227.835 75.9963 227.773 76.3482L227.28 79.139C227.218 79.4909 226.86 79.7246 226.484 79.6583L223.468 79.1265C223.093 79.0603 222.836 78.7182 222.898 78.3663Z" fill="#FAAD14"/>
<path d="M250.926 80.2377C250.926 74.7616 246.493 70.2759 241.024 70.2759C235.555 70.2759 231.121 74.7616 231.121 80.2377C231.121 82.405 232.27 85.2045 234.115 87.2685C235.945 89.3137 236.466 92.7568 236.466 95.5023L236.466 96.5789L245.582 96.5789L245.582 95.5113C245.582 92.7657 246.103 89.3292 247.923 87.2774C249.774 85.1922 250.926 82.144 250.926 80.2377Z" fill="#F9C17E"/>
<path d="M249.297 80.2109C249.297 75.6369 245.594 71.8892 241.024 71.8892C236.454 71.8892 232.752 75.6365 232.752 80.2109C232.752 82.0229 233.711 84.3605 235.253 86.0847C236.781 87.7934 237.916 90.6697 237.916 92.9632L237.916 93.8616L244.132 93.8616L244.132 92.9709C244.132 90.677 245.267 87.806 246.788 86.092C248.334 84.3503 249.297 81.804 249.297 80.2113L249.297 80.2109Z" fill="#D2B18A"/>
<path d="M243.537 101.602L238.511 101.602C238.335 101.602 238.175 101.488 238.079 101.3L237.395 99.5278L244.653 99.5278L243.969 101.3C243.874 101.488 243.714 101.602 243.538 101.602L243.537 101.602Z" fill="#393D65"/>
<path d="M244.758 92.4834L237.29 92.4834C236.735 92.4834 236.285 92.9333 236.285 93.4884L236.285 99.2856C236.285 99.8406 236.735 100.291 237.29 100.291L244.758 100.291C245.313 100.291 245.763 99.8406 245.763 99.2856L245.763 93.4884C245.763 92.9333 245.313 92.4834 244.758 92.4834Z" fill="#204429"/>
<path fill-rule="evenodd" clip-rule="evenodd" d="M236.178 94.7755C236.178 94.7094 236.231 94.6558 236.297 94.6558L241.637 94.6558C241.703 94.6558 241.756 94.7094 241.756 94.7755C241.756 94.8416 241.703 94.8952 241.637 94.8952L236.297 94.8952C236.231 94.8952 236.178 94.8416 236.178 94.7755Z" fill="white"/>
<path fill-rule="evenodd" clip-rule="evenodd" d="M236.178 98.2462C236.178 98.1801 236.231 98.1265 236.297 98.1265L241.637 98.1265C241.703 98.1265 241.756 98.1801 241.756 98.2462C241.756 98.3123 241.703 98.3659 241.637 98.3659L236.297 98.3659C236.231 98.3659 236.178 98.3123 236.178 98.2462Z" fill="white"/>
<path fill-rule="evenodd" clip-rule="evenodd" d="M240.273 96.5108C240.273 96.4447 240.327 96.3911 240.393 96.3911L245.732 96.3911C245.798 96.3911 245.852 96.4447 245.852 96.5108C245.852 96.5769 245.798 96.6305 245.732 96.6305L240.393 96.6305C240.327 96.6305 240.273 96.5769 240.273 96.5108Z" fill="white"/>
<path d="M241.699 76.2342L237.966 81.9292C237.766 82.2379 237.982 82.6176 238.344 82.6176L240.016 82.6176L237.96 86.5072C237.806 86.8217 238.202 87.1135 238.444 86.8648L244.035 81.2387C244.321 80.9459 244.118 80.4458 243.714 80.4458L241.186 80.4458L242.244 76.4825C242.327 76.1443 241.887 75.9458 241.699 76.2342Z" fill="white"/>
<g clip-path="url(#clip2)">
<path d="M260.68 8.682L234.115 6.41234C233.612 6.36934 233.168 6.74845 233.125 7.25913L231.524 25.9898C231.481 26.5005 231.853 26.9493 232.357 26.9923L258.922 29.262C259.425 29.305 259.868 28.9259 259.912 28.4152L261.512 9.68452C261.556 9.17385 261.183 8.725 260.68 8.682Z" fill="#FFCBD2"/>
<path d="M233.894 7.13764C233.478 7.10209 233.109 7.44651 233.069 7.90674L232.864 10.3612L245.666 20.1817C246.166 20.6023 246.873 20.6627 247.437 20.333L261.274 12.7885L261.489 10.3348C261.528 9.87461 261.223 9.47252 260.806 9.43694L233.894 7.13764Z" fill="#A63D4C"/>
<path d="M233.957 6.39887C233.541 6.36332 233.172 6.70774 233.132 7.16797L232.927 9.62248L245.729 19.4429C246.229 19.8635 246.936 19.9239 247.5 19.5942L261.337 12.0498L261.552 9.59607C261.591 9.13584 261.286 8.73375 260.869 8.69817L233.957 6.39887Z" fill="#FFCBD2"/>
</g>
<path d="M329 38C316.851 38 307 48.0989 307 60.557C307 70.5232 313.304 78.9786 322.045 81.9612C323.145 82.17 323.548 81.4719 323.548 80.8761C323.548 80.3382 323.528 78.5613 323.518 76.6765C317.398 78.041 316.106 74.015 316.106 74.015C315.106 71.4078 313.664 70.7145 313.664 70.7145C311.668 69.3145 313.814 69.3432 313.814 69.3432C316.023 69.5024 317.187 71.6678 317.187 71.6678C319.149 75.1162 322.333 74.1193 323.589 73.5429C323.786 72.085 324.356 71.0899 324.985 70.5266C320.099 69.9562 314.962 68.0221 314.962 59.3789C314.962 56.9161 315.821 54.9039 317.229 53.3242C317 52.7561 316.247 50.4618 317.442 47.3548C317.442 47.3548 319.289 46.7485 323.494 49.667C325.248 49.1672 327.131 48.9165 329 48.9079C330.87 48.9165 332.753 49.1672 334.512 49.667C338.711 46.7485 340.555 47.3548 340.555 47.3548C341.753 50.4618 341 52.7561 340.771 53.3242C342.182 54.9039 343.035 56.9161 343.035 59.3789C343.035 68.0426 337.889 69.9502 332.99 70.5087C333.779 71.2087 334.482 72.5814 334.482 74.6859C334.482 77.7041 334.457 80.1332 334.457 80.8761C334.457 81.4764 334.853 82.1797 335.968 81.9582C344.704 78.9722 351 70.5199 351 60.557C351 48.0989 341.15 38 329 38Z" fill="#FFCBD2"/>
<path d="M315.397 70.2322C315.349 70.3432 315.177 70.3765 315.021 70.3003C314.862 70.2274 314.772 70.0762 314.824 69.9648C314.871 69.8505 315.043 69.8187 315.202 69.8953C315.362 69.9682 315.453 70.1209 315.397 70.2322Z" fill="#FFCBD2"/>
<path d="M316.287 71.2409C316.182 71.3396 315.977 71.2938 315.839 71.1377C315.695 70.982 315.668 70.7738 315.774 70.6735C315.882 70.5748 316.081 70.621 316.225 70.7767C316.368 70.9343 316.396 71.141 316.287 71.2409Z" fill="#FFCBD2"/>
<path d="M317.153 72.5272C317.018 72.6222 316.798 72.5331 316.662 72.3345C316.528 72.1359 316.528 71.8977 316.665 71.8022C316.801 71.7068 317.018 71.7926 317.156 71.9898C317.29 72.1917 317.29 72.4299 317.153 72.5272Z" fill="#FFCBD2"/>
<path d="M318.339 73.7699C318.219 73.9048 317.962 73.8686 317.775 73.6844C317.583 73.5043 317.529 73.2487 317.65 73.1137C317.772 72.9784 318.029 73.0165 318.219 73.1992C318.409 73.3789 318.467 73.6363 318.339 73.7699Z" fill="#FFCBD2"/>
<path d="M319.975 74.4917C319.922 74.6667 319.675 74.7462 319.427 74.6718C319.178 74.5953 319.016 74.3904 319.066 74.2136C319.117 74.0375 319.365 73.9547 319.616 74.0342C319.864 74.1104 320.027 74.3138 319.975 74.4917Z" fill="#FFCBD2"/>
<path d="M321.772 74.6258C321.779 74.81 321.568 74.9627 321.307 74.966C321.044 74.972 320.832 74.8229 320.829 74.6417C320.829 74.4556 321.035 74.3044 321.297 74.2999C321.559 74.2948 321.772 74.4427 321.772 74.6258Z" fill="#FFCBD2"/>
<path d="M323.445 74.3359C323.476 74.5157 323.295 74.7002 323.035 74.7494C322.78 74.7968 322.544 74.6858 322.512 74.5075C322.48 74.3234 322.665 74.1388 322.92 74.0911C323.179 74.0452 323.412 74.1532 323.445 74.3359Z" fill="#FFCBD2"/>
<path d="M47.7146 96.8654C46.0618 84.7706 54.5268 73.626 66.6216 71.9733C78.7164 70.3206 89.861 78.7855 91.5137 90.8803C93.1664 102.975 84.7015 114.12 72.6067 115.772C60.5119 117.425 49.3673 108.96 47.7146 96.8654Z" fill="#345881"/>
<path fill-rule="evenodd" clip-rule="evenodd" d="M62.3733 86.3318C62.569 87.7635 61.6478 89.0565 59.9173 89.2929L59.8856 89.2973C58.2194 89.525 56.9857 88.5265 56.7901 87.0947C56.5903 85.6326 57.5481 84.3674 59.2458 84.1354C60.9436 83.9034 62.1413 84.8741 62.3733 86.3318ZM62.6768 90.9892L64.7144 105.901L59.7515 106.579L57.7139 91.6673L62.6768 90.9892ZM82.6124 103.455L81.4443 94.9052C80.8184 90.325 78.0788 88.5279 74.8129 88.9742C72.1779 89.3342 71.196 90.9428 70.676 92.0481L70.3874 89.936L65.4239 90.6143C65.6805 92.0045 67.4615 105.526 67.4615 105.526L72.4251 104.848L71.2871 96.5197C71.2262 96.074 71.1976 95.6251 71.2853 95.2881C71.5223 94.3487 72.213 93.3153 73.5841 93.128C75.3807 92.8825 76.2857 94.1517 76.5595 96.1555L77.6497 104.133L82.6124 103.455Z" fill="white"/>
<path d="M131.711 53.7515L138.241 52.7317L135.764 36.8728L125.343 31.333L128.475 51.3899C128.716 52.9361 130.164 53.9929 131.711 53.7515Z" fill="#345881"/>
<path d="M160.63 49.2354L167.16 48.2156C168.706 47.9741 169.763 46.5262 169.522 44.9799L166.389 24.9231L158.153 33.3765L160.63 49.2354Z" fill="#656F29"/>
<path d="M156.259 21.249L158.153 33.3764L166.389 24.923L165.807 21.1915C165.267 17.7329 161.01 16.3741 158.565 18.8821L156.259 21.249Z" fill="#DCAAB1"/>
<path fill-rule="evenodd" clip-rule="evenodd" d="M135.764 36.873L133.87 24.7456L146.376 31.3933L156.259 21.2492L158.153 33.3766L148.27 43.5207L135.764 36.873Z" fill="#C8777B"/>
<path d="M124.76 27.6015L125.343 31.333L135.764 36.8728L133.87 24.7454L130.952 23.1942C127.86 21.5509 124.22 24.1428 124.76 27.6015Z" fill="#AE4147"/>
<defs>
<clipPath id="clip0">
<rect width="41.9155" height="41.9155" fill="white" transform="translate(0 299.828) rotate(-16.0655)"/>
</clipPath>
<clipPath id="clip1">
<rect width="36.0068" height="36.0068" fill="white" transform="translate(379.039 70.3335) rotate(26.9891)"/>
</clipPath>
<clipPath id="clip2">
<rect width="32.525" height="32.9964" fill="white" transform="translate(231.736) rotate(4.88339)"/>
</clipPath>
</defs>
</svg>
