<svg xmlns="http://www.w3.org/2000/svg" xmlns:xlink="http://www.w3.org/1999/xlink" width="124px" height="202px" viewBox="0 0 124 202" version="1.1">
    <defs>
        <linearGradient x1="-3.48177083%" y1="17.0266727%" x2="100.833333%" y2="92.8868033%" id="linearGradient-1">
            <stop stop-color="#FFFFFF" stop-opacity="0.1" offset="0%"/>
            <stop stop-color="#FFFFFF" stop-opacity="0" offset="100%"/>
        </linearGradient>
        <path d="M91.2001643,31.8444925 C90.9978011,30.6478412 90.1399672,29.6625066 88.9753599,29.2890136 C87.8107526,28.9155205 86.5332397,29.2160429 85.6621124,30.0684226 L68.803631,46.9410864 L55.447153,21.8339168 C54.9115426,20.7585402 53.8065557,20.0777668 52.5966851,20.0777668 C51.3868145,20.0777668 50.2818276,20.7585402 49.7462172,21.8339168 L42.4978846,35.5580931 L24.1734483,1.81276553 C22.7074934,-0.932069726 18.5539545,-0.205495688 18.0653029,2.86226136 L0.47384401,114.754663 L47.6287268,140.992059 C50.5961043,142.606794 54.1900562,142.606794 57.1574337,140.992059 L104.719526,114.754663 L91.2001643,31.8444925 Z" id="path-2"/>
    </defs>
    <g id="Page-1" stroke="none" stroke-width="1" fill="none" fill-rule="evenodd">
        <g id="styleguide" transform="translate(-256.000000, -1246.000000)">
            <g id="Group-16" transform="translate(40.000000, 1187.000000)">
                <g id="Group-9" transform="translate(114.000000, 0.000000)">
                    <g id="Group-25">
                        <g id="logo_lockup_firebase_vertical" transform="translate(102.541436, 59.226519)">
                            <g id="_Group_" transform="translate(8.839779, 0.000000)">
                                <use id="_Path_5" fill="url(#linearGradient-1)" fill-rule="nonzero" xlink:href="#path-2"/>
                                <g id="_Group_2">
                                    <g transform="translate(-6.041511, -0.151675)">
                                        <g id="_Group_3" stroke-width="1" fill="none" fill-rule="evenodd">
                                            <path d="M6.51535513,114.906339 L24.1882559,3.01393675 C24.6769076,-0.0538202992 28.8304465,-0.780394338 30.2964014,1.96444092 L48.5393957,35.7097685 L55.7877283,21.9855922 C56.348085,20.9157926 57.4628857,20.2444228 58.6789172,20.2444228 C59.8949487,20.2444228 61.0097493,20.9157926 61.570106,21.9855922 L110.761037,114.906339 L6.51535513,114.906339 Z" id="_Path_" fill="#FFA000" fill-rule="nonzero"/>
                                            <g id="_Group_4" transform="translate(0.000000, 28.524759)">
                                                <polygon id="Shape" fill="#F57C00" fill-rule="nonzero" points="67.4339256 42.7871378 48.4579538 7.18500994 6.51535513 86.3815801"/>
                                            </g>
                                        </g>
                                        <g id="_Group_5" stroke-width="1" fill="none" fill-rule="evenodd" transform="translate(3.257678, 22.066323)">
                                            <g id="_Group_6" transform="translate(3.257678, 6.996639)" fill-rule="nonzero" fill="#FFCA28">
                                                <path d="M104.245682,85.8433772 L90.7263202,2.9332063 C90.5239571,1.736555 89.6661232,0.751220464 88.5015159,0.377727409 C87.3369086,0.00423435393 86.0593957,0.304756745 85.1882684,1.15713643 L0,85.8433772 L47.1548828,112.080773 C50.1222603,113.695508 53.7162122,113.695508 56.6835897,112.080773 L104.245682,85.8433772 Z" id="_Path_2"/>
                                            </g>
                                        </g>
                                        <path d="M97.2416754,31.9961678 C97.0393123,30.7995165 96.1814783,29.814182 95.016871,29.440689 C93.8522637,29.0671959 92.5747509,29.3677183 91.7036235,30.220098 L74.8451421,47.0927618 L61.4886641,21.9855922 C60.9530537,20.9102156 59.8480668,20.2294422 58.6381962,20.2294422 C57.4283256,20.2294422 56.3233387,20.9102156 55.7877283,21.9855922 L48.5393957,35.7097685 L30.2149594,1.96444092 C28.7490045,-0.780394338 24.5954656,-0.0538202992 24.106814,3.01393675 L6.51535513,114.906339 L6.43391319,114.906339 L6.51535513,114.987069 L7.00400677,115.22926 L74.7637002,47.9000662 L91.7036235,31.1081329 C92.5747509,30.2557532 93.8522637,29.9552308 95.016871,30.3287239 C96.1814783,30.7022169 97.0393123,31.6875515 97.2416754,32.8842028 L110.598153,114.987069 L110.761037,114.906339 L97.2416754,31.9961678 Z M6.67823901,114.744878 L24.1882559,3.82124124 C24.6769076,0.753484188 28.8304465,0.0269101496 30.2964014,2.77174541 L48.5393957,36.517073 L55.7877283,22.7928967 C56.348085,21.7230971 57.4628857,21.0517273 58.6789172,21.0517273 C59.8949487,21.0517273 61.0097493,21.7230971 61.570106,22.7928967 L74.6008163,47.3349531 L6.67823901,114.744878 Z" id="_Compound_Path_" fill-opacity="0.2" fill="#FFFFFF" fill-rule="nonzero"/>
                                        <path d="M63.1989448,140.33643 C60.2315673,141.951165 56.6376154,141.951165 53.6702379,140.33643 L6.59679707,114.179765 L6.51535513,114.906339 L53.6702379,141.143735 C56.6376154,142.75847 60.2315673,142.75847 63.1989448,141.143735 L110.761037,114.906339 L110.679595,114.179765 L63.1989448,140.33643 Z" id="_Path_3" fill="#A52714" fill-rule="nonzero" opacity="0.2"/>
                                    </g>
                                </g>
                                <polygon id="_Path_4" mask="url(#mask-3)" points="-25.5875765 -6.34100979 130.780947 -6.34100979 130.780947 148.661452 -25.5875765 148.661452"/>
                                <path d="M91.2001643,31.8444925 C90.9978011,30.6478412 90.1399672,29.6625066 88.9753599,29.2890136 C87.8107526,28.9155205 86.5332397,29.2160429 85.6621124,30.0684226 L68.803631,46.9410864 L55.447153,21.8339168 C54.9115426,20.7585402 53.8065557,20.0777668 52.5966851,20.0777668 C51.3868145,20.0777668 50.2818276,20.7585402 49.7462172,21.8339168 L42.4978846,35.5580931 L24.1734483,1.81276553 C22.7074934,-0.932069726 18.5539545,-0.205495688 18.0653029,2.86226136 L0.47384401,114.754663 L47.6287268,140.992059 C50.5961043,142.606794 54.1900562,142.606794 57.1574337,140.992059 L104.719526,114.754663 L91.2001643,31.8444925 Z" id="_Path_5" fill="url(#linearGradient-1)" fill-rule="nonzero" mask="url(#mask-3)"/>
                            </g>
                        </g>
                    </g>
                </g>
            </g>
        </g>
    </g>
</svg>