<svg width="62" height="14" viewBox="0 0 62 14" fill="none" xmlns="http://www.w3.org/2000/svg">
<path fill-rule="evenodd" clip-rule="evenodd" d="M15.3974 7.10523C15.3974 10.7762 12.0947 13.7524 8.02078 13.7524C3.94731 13.7524 0.645142 10.7762 0.645142 7.10523C0.645142 3.43429 3.94731 0.458008 8.02078 0.458008C12.0947 0.458008 15.3974 3.43429 15.3974 7.10523Z" fill="#FF7946"/>
<path fill-rule="evenodd" clip-rule="evenodd" d="M38.5794 7.10523C38.5794 10.7762 35.2771 13.7524 31.203 13.7524C27.1294 13.7524 23.8271 10.7762 23.8271 7.10523C23.8271 3.43429 27.1294 0.458008 31.203 0.458008C35.2771 0.458008 38.5794 3.43429 38.5794 7.10523Z" fill="#FAAD14"/>
<path fill-rule="evenodd" clip-rule="evenodd" d="M61.7615 7.10523C61.7615 10.7762 58.931 13.7524 55.4389 13.7524C51.9472 13.7524 49.1167 10.7762 49.1167 7.10523C49.1167 3.43429 51.9472 0.458008 55.4389 0.458008C58.931 0.458008 61.7615 3.43429 61.7615 7.10523Z" fill="#7CB305"/>
</svg>
