<?xml version="1.0" encoding="utf-8"?>
<!-- Generator: Adobe Illustrator 24.1.2, SVG Export Plug-In . SVG Version: 6.00 Build 0)  -->
<svg version="1.1" id="Layer_1" xmlns="http://www.w3.org/2000/svg" xmlns:xlink="http://www.w3.org/1999/xlink" x="0px" y="0px"
	 viewBox="0 0 835 559.9" style="enable-background:new 0 0 835 559.9;" xml:space="preserve">
<style type="text/css">
	.st0{fill:#CCCCCC;}
	.st1{fill:#ED8E7C;}
	.st2{fill:#E3F1E6;}
	.st3{fill:#3F3D56;}
	.st4{fill:#FFFFFF;}
	.st5{fill:#FEB8B8;}
	.st6{fill:#2F2E41;}
	.st7{fill:#E6E6E6;}
</style>
<g>
	<rect id="Rectangle_113" x="411" y="37" class="st0" width="94.6" height="1.8"/>
	<rect x="37" y="37" class="st0" width="300.2" height="1.8"/>
	<path class="st1" d="M43.3,38.8H74c-0.5,20-16.9,36.1-37,36.1c-20.4,0-37-16.6-37-37c0-20.4,16.6-37,37-37C57.1,0.9,73.5,17,74,37
		H44.7l4-5.2c1-1.3,0.7-3.2-0.6-4.2c-1.3-1-3.2-0.7-4.2,0.6L37.1,37H37v0.2l-3.5,4.5l-4.4-3.4c-1.3-1-3.2-0.7-4.2,0.6
		c-1,1.3-0.7,3.2,0.6,4.2l6.8,5.2c0.5,0.4,1.2,0.6,1.8,0.6c0.9,0,1.8-0.5,2.4-1.2L43.3,38.8z"/>
	<path class="st2" d="M74,37.9c0,0.3,0,0.6,0,0.9H43.3l-6.8,8.9c-0.6,0.7-1.5,1.2-2.4,1.2c-0.6,0-1.3-0.2-1.8-0.6l-6.8-5.2
		c-1.3-1-1.6-2.9-0.6-4.2c1-1.3,2.9-1.6,4.2-0.6l4.4,3.4l3.5-4.5V37h0.1l6.8-8.8c1-1.3,2.9-1.6,4.2-0.6c1.3,1,1.6,2.9,0.6,4.2
		l-4,5.2H74C74,37.3,74,37.6,74,37.9z"/>
	<circle id="Ellipse_116" class="st3" cx="205.5" cy="37.9" r="37"/>
	<path id="Path_748" class="st0" d="M374.1,75.7c-20.9,0-37.9-16.9-37.9-37.9S353.2,0,374.1,0S412,16.9,412,37.9
		S395,75.7,374.1,75.7L374.1,75.7z M374.1,1.8c-19.9,0-36.1,16.1-36.1,36.1S354.1,74,374.1,74c19.9,0,36.1-16.1,36.1-36.1l0,0
		C410.1,17.9,394,1.8,374.1,1.8z"/>
	<path id="Path_749" class="st0" d="M542.6,75.7c-20.9,0-37.9-16.9-37.9-37.9S521.7,0,542.6,0c20.9,0,37.9,16.9,37.9,37.9
		S563.5,75.7,542.6,75.7L542.6,75.7z M542.6,1.8c-19.9,0-36.1,16.1-36.1,36.1c0,19.9,16.1,36.1,36.1,36.1
		c19.9,0,36.1-16.1,36.1-36.1S562.5,1.8,542.6,1.8L542.6,1.8z"/>
	<path class="st4" d="M48.7,31.8l-4,5.2l-1.4,1.8l-6.8,8.9c-0.6,0.7-1.5,1.2-2.4,1.2c-0.6,0-1.3-0.2-1.8-0.6l-6.8-5.2
		c-1.3-1-1.6-2.9-0.6-4.2c1-1.3,2.9-1.6,4.2-0.6l4.4,3.4l3.5-4.5l0.1-0.2l6.8-8.8c1-1.3,2.9-1.6,4.2-0.6
		C49.4,28.6,49.7,30.5,48.7,31.8z"/>
</g>
<g id="Group_24" transform="translate(808.073 222.403)">
	<path id="Path_552" class="st5" d="M-151.5-26.4c0.7,0.3,1.4,0.7,2,1.1l63.2-27l2.3-16.6l25.2-0.2l-1.5,38.2l-83.4,22
		c-0.2,0.6-0.4,1.1-0.6,1.7c-3.4,7.2-12,10.3-19.2,6.9s-10.3-12-6.9-19.2C-167.1-26.5-158.7-29.7-151.5-26.4L-151.5-26.4z"/>
	<path id="Path_553" class="st5" d="M-49.7,319.3H-67l-8.2-66.6h25.5L-49.7,319.3z"/>
	<path id="Path_554" class="st6" d="M-79.3,314.4H-46v21h-54.3C-100.2,323.8-90.9,314.4-79.3,314.4L-79.3,314.4L-79.3,314.4z"/>
	<path id="Path_555" class="st5" d="M17.4,314.4l-17.2,1.7l-14.7-65.5l25.4-2.5L17.4,314.4z"/>
	<path id="Path_556" class="st6" d="M-12.5,312.4l33.1-3.3l2.1,20.9l-54,5.3C-32.4,323.8-24,313.6-12.5,312.4L-12.5,312.4z"/>
	<ellipse id="Ellipse_84" class="st5" cx="-44.9" cy="-174.1" rx="34.6" ry="34.6"/>
	<path id="Path_557" class="st6" d="M-70.8,305.9c-3.1,0-5.7-2.2-6.2-5.2c-8.9-49.6-38.1-211.8-38.8-216.3c0-0.1,0-0.2,0-0.3V72
		c0-0.4,0.1-0.9,0.4-1.2l3.9-5.4c0.4-0.5,1-0.9,1.6-0.9c22-1,94-4.1,97.5,0.3l0,0c3.5,4.4,2.3,17.6,2,20.2v0.3l32.4,207
		c0.5,3.4-1.8,6.7-5.2,7.2l-20.2,3.3c-3.1,0.5-6.1-1.4-7.1-4.4c-6.3-20-27.2-87.2-34.5-113.2c-0.1-0.4-0.5-0.6-0.8-0.5
		s-0.6,0.4-0.5,0.7c0.4,24.8,1.2,88,1.5,109.9v2.4c0,3.3-2.5,6.1-5.8,6.4l-19.5,1.8C-70.4,305.8-70.6,305.9-70.8,305.9z"/>
	<path id="Path_99" class="st7" d="M-66.8-125.9c-6,3.6-9.6,10.2-11.7,16.9c-3.8,12.4-6.1,25.3-6.9,38.2l-2.2,38.9l-27.1,103
		c23.5,19.9,37,15.3,68.7-0.9s35.2,5.4,35.2,5.4l6.3-87.7l9-95.8c-2-2.4-4.3-4.7-6.8-6.6c-16.9-13.2-39-17.8-59.8-12.7L-66.8-125.9z
		"/>
	<path id="Path_558" class="st5" d="M-75.6-5.6c0.7,0.3,1.4,0.6,2.1,1l62.4-31.3l1-16.9l25.8-1.8L17.1-16l-83.5,27.6
		c-1.9,8-9.8,12.9-17.8,11s-12.9-9.8-11-17.8s9.8-12.9,17.8-11C-76.8-6-76.2-5.9-75.6-5.6L-75.6-5.6z"/>
	<path id="Path_101" class="st7" d="M4.1-107.4c15.4,5.4,18.1,64.2,18.1,64.2c-18.1-9.9-39.8,6.3-39.8,6.3s-4.5-15.4-9.9-35.2
		c-3.3-11.4-0.6-23.6,7.2-32.5C-20.3-104.7-11.2-112.8,4.1-107.4z"/>
	<path id="Path_102" class="st6" d="M-13.9-165c-4.3-3.4-10.2,2.8-10.2,2.8l-3.4-31c0,0-21.5,2.6-35.3-0.9s-15.9,12.5-15.9,12.5
		c-0.7-6.4-0.9-12.9-0.4-19.4c0.9-7.8,12.1-15.5,31.9-20.7S-17-204.5-17-204.5C-3.4-197.5-9.6-161.5-13.9-165z"/>
</g>
<g>
	<path id="Path_138" class="st7" d="M630.3,144.7H314.6c-3.2,0-5.8,2.6-5.8,5.8v78.3c0,3.2,2.6,5.8,5.8,5.8h315.7
		c3.2,0,5.9-2.6,5.8-5.8v-78.3C636.1,147.3,633.5,144.7,630.3,144.7z M633.8,228.7c0,1.9-1.6,3.5-3.5,3.5H314.6
		c-1.9,0-3.5-1.6-3.5-3.5v-78.3c0-1.9,1.6-3.5,3.5-3.5h315.7c1.9,0,3.5,1.6,3.5,3.5V228.7z"/>
	<path id="Path_139" class="st7" d="M418.7,170.7c-2.2,0-4,1.8-4,4s1.8,4,4,4l0,0h187.1c2.2,0,4-1.8,4-4s-1.8-4-4-4H418.7z"/>
	<path id="Path_140" class="st7" d="M418.7,194.5c-2.2,0-4,1.8-4,4s1.8,4,4,4l0,0h80.5c2.2,0,4-1.8,4-4s-1.8-4-4-4l0,0H418.7z"/>
	<path class="st7" d="M363.9,162.6c-13.1,0-23.8,10.7-23.8,23.8c0,13.1,10.7,23.8,23.8,23.8s23.8-10.7,23.8-23.8
		C387.7,173.3,377,162.6,363.9,162.6z M378.2,178.6l-15,19.6c-0.8,0.9-1.9,1.4-3,1.4c-0.8,0-1.6-0.3-2.2-0.7l-8.4-6.4
		c-1.6-1.2-1.9-3.6-0.7-5.2c1.2-1.6,3.6-1.9,5.2-0.7l5.4,4.2l12.8-16.7c1.2-1.6,3.6-1.9,5.2-0.7C379.1,174.6,379.4,177,378.2,178.6z
		"/>
	<path class="st1" d="M378.2,178.6l-15,19.6c-0.8,0.9-1.9,1.4-3,1.4c-0.8,0-1.6-0.3-2.2-0.7l-8.4-6.4c-1.6-1.2-1.9-3.6-0.7-5.2
		c1.2-1.6,3.6-1.9,5.2-0.7l5.4,4.2l12.8-16.7c1.2-1.6,3.6-1.9,5.2-0.7C379.1,174.6,379.4,177,378.2,178.6z"/>
</g>
</svg>
