<?xml version="1.0" encoding="utf-8"?>
<!-- Generator: Adobe Illustrator 24.1.2, SVG Export Plug-In . SVG Version: 6.00 Build 0)  -->
<svg version="1.1" id="bdca66da-b24d-4c28-9ed3-7b25797e90e9"
	 xmlns="http://www.w3.org/2000/svg" xmlns:xlink="http://www.w3.org/1999/xlink" x="0px" y="0px" viewBox="0 0 745.8 510"
	 style="enable-background:new 0 0 745.8 510;" xml:space="preserve">
<style type="text/css">
	.st0{fill:#E6E6E6;}
	.st1{fill:#FFFFFF;}
	.st2{fill:#ED8E7C;}
	.st3{fill:#2F2E41;}
	.st4{fill:#A0616A;}
	.st5{fill:#CBCBCB;}
	.st6{fill:#FFB7B7;}
	.st7{fill:#6C63FF;}
	.st8{fill:#3F3D56;}
</style>
<rect id="e53b7fd6-ae48-4231-a6bf-c74c7a6312f6" x="0.3" y="19.3" class="st0" width="705.3" height="334.7"/>
<rect id="e27b5d17-8fe1-40fd-abc5-ff1fb7c5af81" x="20.5" y="48" class="st1" width="664.9" height="279.2"/>
<rect id="f11de06d-5237-47a5-bdcf-7ab24c90f6f6" class="st2" width="705.3" height="30"/>
<circle id="a8620065-6204-4575-b165-05df1e96cc70" class="st1" cx="22.3" cy="15.6" r="5.6"/>
<circle id="b36f18db-17cf-43fd-9307-66e7abd9e79c" class="st1" cx="43.3" cy="15.6" r="5.6"/>
<circle id="f951b331-c7b3-4c65-b7ff-4fae542bffe1" class="st1" cx="64.4" cy="15.6" r="5.6"/>
<path id="f1fe0bb1-d2c3-44f1-a2df-b8ed042349d0" class="st0" d="M281.3,132.3c-1.5,0-2.7,2.1-2.7,4.6s1.2,4.6,2.7,4.6h278.4
	c1.5,0,2.7-2.1,2.7-4.6s-1.2-4.6-2.7-4.6H281.3z"/>
<path id="b5b576d4-2c69-432d-bba9-c1d1eb12c444" class="st0" d="M281.3,159.7c-1.5,0-2.7,2.1-2.7,4.6s1.2,4.6,2.7,4.6H487
	c1.5,0,2.7-2.1,2.7-4.6s-1.2-4.6-2.7-4.6H281.3z"/>
<path id="e1a4eb85-7f76-47c7-ae93-e7842353edb9" class="st0" d="M281.3,186.5c-1.5,0-2.7,2.1-2.7,4.6s1.2,4.6,2.7,4.6h278.4
	c1.5,0,2.7-2.1,2.7-4.6s-1.2-4.6-2.7-4.6H281.3z"/>
<path id="bd9e3462-ca4d-47f6-a5ea-71b97a8587f8" class="st0" d="M281.3,213.9c-1.5,0-2.7,2.1-2.7,4.6s1.2,4.6,2.7,4.6H487
	c1.5,0,2.7-2.1,2.7-4.6s-1.2-4.6-2.7-4.6H281.3z"/>
<path id="f71eedc3-aadd-4340-a501-e921cec01e8f" class="st0" d="M65.2,233.3c-1.5,0-2.7,2.1-2.7,4.6s1.2,4.6,2.7,4.6h137.4
	c1.5,0,2.7-2.1,2.7-4.6s-1.2-4.6-2.7-4.6H65.2z"/>
<path id="b1fed777-acdd-4ce8-9b40-ebd2535d8bb3" class="st0" d="M65.2,260.7c-1.5,0-2.7,2.1-2.7,4.6s1.2,4.6,2.7,4.6H130
	c1.5,0,2.7-2.1,2.7-4.6s-1.2-4.6-2.7-4.6H65.2z"/>
<path class="st1" d="M186.5,117.6c-10.1-29.1-41.9-44.4-70.9-34.3c-29.1,10.1-44.4,41.9-34.3,70.9c2.1,5.9,5.1,11.4,9,16.3
	c0.5,0.6,1,1.3,1.5,1.9l0.1,0.1c1.3,1.5,2.7,2.9,4.2,4.3c0.4,0.4,0.8,0.7,1.2,1c0.8,0.7,1.5,1.3,2.4,2c1.6,1.2,3.2,2.4,4.9,3.5h0.1
	c1.1,0.7,2.2,1.3,3.4,1.9l0.5,0.2c1.1,0.6,2.2,1.1,3.3,1.6c0.2,0.1,0.5,0.2,0.7,0.3c0,0,0,0,0.1,0c2.3,0.9,4.6,1.7,7,2.4
	c4.7,1.2,9.5,1.9,14.4,1.9c1.8,0,3.5-0.1,5.3-0.3c4-0.4,7.9-1.2,11.6-2.4l0,0c2.4-0.8,4.7-1.7,7-2.8l0,0c0.5-0.2,1-0.5,1.5-0.8
	l0.2-0.1c0.4-0.2,0.8-0.4,1.2-0.6c1-0.5,2-1.1,3-1.8c0.3-0.2,0.5-0.3,0.8-0.5c0.9-0.6,1.8-1.2,2.6-1.8c0.2-0.1,0.3-0.2,0.5-0.3
	C186.8,165.7,194.5,140.4,186.5,117.6L186.5,117.6z"/>
<circle id="b315fec5-366f-4a16-9dc9-634679b82ba4" class="st3" cx="152.3" cy="150.5" r="8.3"/>
<path id="fd00c811-5154-4e0f-bd90-f718730f637f" class="st3" d="M154.6,142.4c4.6,0,8.3,3.7,8.3,8.4c0,1.4-0.3,2.7-1,4
	c2.9-3.6,2.3-8.9-1.3-11.7s-8.9-2.3-11.7,1.3c-0.3,0.4-0.6,0.8-0.8,1.2C149.7,143.6,152.1,142.4,154.6,142.4L154.6,142.4z"/>
<circle id="b073881c-6d17-4b63-9208-a633e233f752" class="st3" cx="136.7" cy="126" r="24.5"/>
<path id="e068fb34-c64f-4621-9a6c-47926968fe63" class="st3" d="M117.4,110.8c8.8-9.9,23.8-11,34-2.6c-0.2-0.2-0.4-0.4-0.6-0.6
	c-10.1-9-25.6-8.2-34.6,1.9s-8.2,25.6,1.9,34.6l0,0l0.1,0.1c0.2,0.2,0.4,0.4,0.6,0.5C109.3,135.7,108.7,120.7,117.4,110.8
	L117.4,110.8z"/>
<circle id="baa61e83-3b6b-4f74-a8d9-0c51f3f7a212" class="st4" cx="136.5" cy="134.5" r="15.8"/>
<path class="st5" d="M164.8,175.7v5.3c-1,0.6-2,1.2-3,1.8c-0.4,0.2-0.8,0.4-1.2,0.6l-0.2,0.1c-0.5,0.3-1,0.5-1.5,0.8l0,0
	c-2.3,1.1-4.6,2-7,2.8l0,0c-3.8,1.2-7.7,2-11.6,2.4c-1.7,0.2-3.5,0.3-5.3,0.3c-4.9,0-9.7-0.6-14.4-1.9c-2.4-0.6-4.7-1.4-7-2.4
	c0,0,0,0-0.1,0c-0.2-0.1-0.5-0.2-0.7-0.3c-1.1-0.5-2.2-1-3.3-1.6l-0.5-0.2c-1.2-0.6-2.3-1.3-3.4-1.9h-0.1c-1.7-1.1-3.4-2.2-4.9-3.5
	c-0.8-0.6-1.6-1.3-2.4-2c-0.4-0.3-0.8-0.7-1.2-1c-1.5-1.3-2.8-2.8-4.2-4.3c0.2-1,0.4-2.1,0.8-3.1l0,0c0.1-0.2,0.1-0.3,0.2-0.5
	c0.1-0.1,0.1-0.3,0.2-0.4c1.8-3.4,5-4.2,9.1-4.4c2.3-0.1,4.8,0,7.4,0c1.4,0,2.8-0.1,4.3-0.2c9.1-0.8,7.5-6.2,7.9-9.1
	c0.4-2.8,3-0.4,3.1-0.2l0,0c5.2,2.4,10.9,3.4,16.6,2.9c1-0.1,2-0.2,2.9-0.2c2.6,0,2,0.7,1.1,1.3c-0.4,0.3-0.9,0.5-1.4,0.8
	c0,0-0.4,2.5-0.8,6.2c-0.4,3.6,6.5,5.3,7,5.4l0,0c2.5-0.6,5.1-0.6,7.6,0.2l0,0C161.9,170.3,164.1,172.7,164.8,175.7z"/>
<path class="st3" d="M113.6,182.1c0,0.7,0,1.5,0,2.1c0,0.4,0,0.8,0,1.2c0,0,0,0-0.1,0c-0.2-0.1-0.5-0.2-0.7-0.3
	c-1.1-0.5-2.2-1-3.3-1.6l-0.5-0.2c-1.2-0.6-2.3-1.3-3.4-1.9c0-0.4,0.1-0.7,0.1-1c0.1-0.8,0.2-1.5,0.3-2.3c0.4-5.4-0.6-10.8-2.9-15.8
	l0,0c-0.2-0.4-0.3-0.6-0.3-0.6s2.9-2.5,7.1,0c0.3,0.2,0.5,0.4,0.7,0.6C113.1,165.1,113.7,175,113.6,182.1z"/>
<path class="st3" d="M159,180.7c0,1.1-0.1,2.3-0.2,3.5l0,0l0,0c-2.3,1.1-4.6,2-7,2.8l0,0l-0.1-2.8v-0.4l-0.5-13.7
	c-0.1-1.3,0.9-2.3,2.2-2.4h0.1h5.1c0.3,0,0.4,0.5,0.6,1.4l0,0C159.3,173,159.3,176.9,159,180.7z"/>
<path id="b5d95f6e-bcc4-4382-8a9f-8ff393651dfe" class="st3" d="M123,114.8v15.8h3.7l4.7-5l-0.6,5H147l-1-5l2,5h2.6v-15.8H123z"/>
<ellipse id="a1555f60-b18f-4a81-9968-ab91697ea211" class="st4" cx="120.5" cy="131.2" rx="1.2" ry="2.3"/>
<ellipse id="b9487e3b-2bf5-437d-8cc7-b19d17f64c32" class="st4" cx="152.5" cy="131.2" rx="1.2" ry="2.3"/>
<path class="st5" d="M186.5,117.6c-10.1-29.1-41.9-44.4-70.9-34.3c-29.1,10.1-44.4,41.9-34.3,70.9c2.1,5.9,5.1,11.4,9,16.3
	c0.5,0.6,1,1.3,1.5,1.9l0.1,0.1c1.3,1.5,2.7,2.9,4.2,4.3c0.4,0.4,0.8,0.7,1.2,1c0.8,0.7,1.5,1.3,2.4,2c1.6,1.2,3.2,2.4,4.9,3.5h0.1
	c1.1,0.7,2.2,1.3,3.4,1.9l0.5,0.2c1.1,0.6,2.2,1.1,3.3,1.6c0.2,0.1,0.5,0.2,0.7,0.3c0,0,0,0,0.1,0c2.3,0.9,4.6,1.7,7,2.4
	c4.7,1.2,9.5,1.9,14.4,1.9c1.8,0,3.5-0.1,5.3-0.3c4-0.4,7.9-1.2,11.6-2.4l0,0c2.4-0.8,4.7-1.7,7-2.8l0,0c0.5-0.2,1-0.5,1.5-0.8
	l0.2-0.1c0.4-0.2,0.8-0.4,1.2-0.6c1-0.5,2-1.1,3-1.8c0.3-0.2,0.5-0.3,0.8-0.5c0.9-0.6,1.8-1.2,2.6-1.8c0.2-0.1,0.3-0.2,0.5-0.3
	C186.8,165.7,194.5,140.4,186.5,117.6L186.5,117.6z M165.8,177.9c-0.3,0.3-0.7,0.5-1,0.7c-0.3,0.3-0.7,0.5-1,0.7s-0.6,0.4-0.9,0.6
	c-0.3,0.2-0.5,0.3-0.8,0.5c-0.8,0.5-1.7,1-2.5,1.5c-0.1,0-0.2,0.1-0.3,0.1c-0.4,0.2-0.8,0.4-1.1,0.6c-0.1,0-0.1,0-0.2,0.1h-0.1
	c-0.5,0.3-1,0.5-1.5,0.7c-1.9,0.9-3.8,1.7-5.8,2.4c-0.3,0.1-0.5,0.2-0.8,0.3c-3.6,1.1-7.3,1.9-11,2.2c-1.6,0.1-3.3,0.2-5,0.2
	c-4.6,0-9.2-0.6-13.6-1.8c-2.3-0.6-4.5-1.3-6.7-2.3c-0.2-0.1-0.5-0.2-0.7-0.3c-0.1,0-0.2-0.1-0.4-0.2c-0.9-0.4-1.9-0.9-2.8-1.3
	l-0.4-0.2c-1.1-0.6-2.2-1.2-3.3-1.9c-0.4-0.2-0.8-0.5-1.2-0.8c-1.2-0.8-2.4-1.6-3.5-2.5c-0.8-0.6-1.5-1.2-2.2-1.8
	c-0.4-0.3-0.8-0.7-1.1-1c-1.4-1.3-2.8-2.7-4-4.2c-0.4-0.5-0.8-1-1.2-1.5c-0.1-0.1-0.2-0.2-0.3-0.3c-18.1-22.8-14.2-55.9,8.6-74
	s55.9-14.2,74,8.6s14.2,55.9-8.6,74C166.3,177.4,166,177.6,165.8,177.9L165.8,177.9z"/>
<path class="st6" d="M529.2,201.1c0.5,0.4,1,0.8,1.4,1.2l53.8-10.6l4.3-12.6l19.9,4l-5.5,23c-0.9,3.8-4.2,6.6-8.2,6.8l-62.3,3.1
	c-3.1,5.6-10.1,7.7-15.7,4.6c-5.6-3.1-7.7-10.1-4.6-15.7s10.1-7.7,15.7-4.6C528.4,200.6,528.9,200.9,529.2,201.1L529.2,201.1z"/>
<path class="st7" d="M583.1,189.2c-0.7-1.3-0.8-2.8-0.4-4.1l8.4-23.5c1.5-7.5,8.7-12.3,16.2-10.9c7.5,1.5,12.3,8.7,10.9,16.2
	l-1.2,25c-0.1,2.7-2.5,4.9-5.2,4.7c-0.2,0-0.5,0-0.7-0.1l-24.6-4.9C585,191.4,583.8,190.5,583.1,189.2z"/>
<polygon class="st6" points="569.6,494 553.8,494 546.3,433.1 569.6,433.1 "/>
<path class="st3" d="M573.6,509.3h-51v-0.6c0-11,8.9-19.8,19.8-19.8l0,0h31.1L573.6,509.3z"/>
<polygon class="st6" points="719.3,477.5 704.6,483.4 674.7,429.8 696.3,421 "/>
<path class="st3" d="M728.8,490.1l-47.2,19.2l-0.2-0.6c-4.1-10.1,0.7-21.7,10.9-25.8l0,0l28.8-11.7L728.8,490.1z"/>
<path class="st3" d="M584,240.9l-7.3-38.5l0,0c-3.2-11.5-1-23.8,6-33.4l26.6-35.5l25.4,0.7l0,0c12,29.1,14.2,61.3,6.3,91.8l-4.7,18
	c20.9,18.9,35,71.8,47.7,131l35,77.4l-60.2,18.3l-39-113.6l-34.9,114.4l-51.1-2l38.8-177L584,240.9z"/>
<circle class="st6" cx="624.4" cy="101.5" r="24.8"/>
<path class="st3" d="M722.2,157.8c-4.6-9-6.2-19.2-9.7-28.7s-10-18.8-19.7-21.4c-5.5-1.5-11.4-0.6-17.1-1.3
	c-5-0.6-10.4-3.2-12.3-7.6c0.4-4.4-0.2-8.8-1.6-13c-3.6-10.1-12.1-18.1-22-22.3c-8.1-3.4-17.3-4.3-25.5-1.4s-15.1,10-16.6,18.6
	s3.3,18.2,11.4,21.3c5.9,2.2,13.4,1.5,17.3,6.4c3.9,5,1.1,12.3-2.4,17.6l0.2,0.2c11.5,0.1,24-2.1,31.9-10.4c0.9-0.9,1.7-1.9,2.4-2.9
	c0.2,0.4,0.5,0.8,0.8,1.1c4,5.3,10.2,8.3,16.2,11.2c6,2.9,12.1,6.2,15.7,11.8c6.5,10.1,2.2,23.7,5.9,35.1
	c4.4,13.6,19,21.1,32.7,16.7c7.4-2.4,13.3-7.9,16.1-15.1C735.7,174.7,726.8,166.8,722.2,157.8z"/>
<path class="st2" d="M482.2,221.1l1-25.5l35.9-71.5c1-2,2.7-3.7,4.7-4.7c2.5-1.3,5.4-1.4,8.1-0.5c3.1,1.1,5.5,3.5,6.5,6.6
	c0.2,0.7,0.4,1.3,0.5,2c0.3,2.1-0.1,4.1-1,6l-36,71.6L482.2,221.1z"/>
<path class="st8" d="M528.3,118.9l-39,77.6l-3-1.5l37.7-75C525.4,119.3,526.9,119,528.3,118.9z"/>
<path class="st8" d="M538.5,127.7L501,202.3l-3-1.5l38.9-77.4c0.5,0.7,0.9,1.5,1.1,2.4C538.2,126.4,538.4,127.1,538.5,127.7z"/>
<path class="st8" d="M534.7,121.1l-39.5,78.4l-3-1.5l39.5-78.5c0.4,0.1,0.8,0.3,1.2,0.5C533.6,120.3,534.2,120.7,534.7,121.1z"/>
<path class="st8" d="M486.7,216.9l-4,3.2l0.3-8.4C484.4,212.1,485.9,214.2,486.7,216.9z"/>
<path class="st6" d="M527.6,136.7c0.1,0.6,0.2,1.2,0.3,1.8l47.5,27.4l11.5-6.6l12.3,16.1l-19.3,13.7c-3.2,2.3-7.5,2.2-10.6-0.3
	l-48.9-38.6c-6,2.2-12.7-0.8-14.9-6.8s0.8-12.7,6.8-14.9c6-2.2,12.7,0.8,14.9,6.8C527.4,135.8,527.5,136.3,527.6,136.7L527.6,136.7z
	"/>
<path class="st2" d="M576,163.2c0.3-1.4,1.2-2.6,2.4-3.3l21.8-12.2c6-4.7,14.7-3.5,19.4,2.5c4.6,6,3.6,14.6-2.4,19.3l-17.4,18
	c-1.9,2-5.1,2-7,0.1c-0.2-0.2-0.3-0.4-0.5-0.5L577,167.2C576,166.1,575.7,164.6,576,163.2z"/>
</svg>
