<?xml version="1.0" encoding="utf-8"?>
<!-- Generator: Adobe Illustrator 24.1.2, SVG Export Plug-In . SVG Version: 6.00 Build 0)  -->
<svg version="1.1" id="eab38be6-400f-4307-af4c-8f24956b1905"
	 xmlns="http://www.w3.org/2000/svg" xmlns:xlink="http://www.w3.org/1999/xlink" x="0px" y="0px" viewBox="0 0 842.2 568.9"
	 style="enable-background:new 0 0 842.2 568.9;" xml:space="preserve">
<style type="text/css">
	.st0{fill:#E5E5E5;}
	.st1{fill:#FFFFFF;}
	.st2{fill:#ED8E7C;}
	.st3{fill:#3F3D56;}
	.st4{fill:#CCCCCC;}
	.st5{fill:#F1F1F1;}
	.st6{fill:#850C5C;}
	.st7{fill:#9F616A;}
	.st8{fill:#CBCBCB;}
	.st9{fill:#2F2E41;}
</style>
<rect id="f54375ad-557d-4249-95e2-413e25c77bd8" x="0.4" y="23.1" class="st0" width="841.8" height="399.5"/>
<rect id="eb84611c-d49d-4ce2-b538-4fee0a7e188d" x="24.4" y="57.3" class="st1" width="793.7" height="333.3"/>
<rect id="a33b5263-04c3-449f-a8ad-1420252c1e48" class="st2" width="841.8" height="35.8"/>
<circle id="a01a8c4b-bf8b-4728-9381-d6cbaed15ee5" class="st1" cx="26.6" cy="17.8" r="6.6"/>
<circle id="a70f271b-ee75-4447-9507-72af025f0784" class="st1" cx="51.7" cy="17.8" r="6.6"/>
<circle id="b6ae4294-4107-4abd-ba05-1d458fcbc8d7" class="st1" cx="76.9" cy="17.8" r="6.6"/>
<path id="a98f5d70-28fc-4129-b4f3-463d07786f2f" class="st3" d="M154.5,133.2c-1.8,0-3.3,1.5-3.3,3.3s1.5,3.3,3.3,3.3l0,0h89.3
	c1.8,0,3.3-1.5,3.3-3.3s-1.5-3.3-3.3-3.3H154.5z"/>
<path id="a5717240-4d8d-4c71-83bc-6deeb889f166" class="st4" d="M104,178.2c-1.8,0-3.3,1.5-3.3,3.3s1.5,3.3,3.3,3.3h190.3
	c1.8,0,3.3-1.5,3.3-3.3s-1.5-3.3-3.3-3.3H104z"/>
<path id="f9c6f13d-6e3a-4758-9844-a0f5d5c969ce" class="st4" d="M104,204.2c-1.8,0-3.3,1.5-3.3,3.3s1.5,3.3,3.3,3.3h190.3
	c1.8,0,3.3-1.5,3.3-3.3s-1.5-3.3-3.3-3.3H104z"/>
<path id="bf808dfd-2bb2-4793-b7c6-d8671bf7e9b4" class="st4" d="M104,230.2c-1.8,0-3.3,1.5-3.3,3.3s1.5,3.3,3.3,3.3h190.3
	c1.8,0,3.3-1.5,3.3-3.3s-1.5-3.3-3.3-3.3H104z"/>
<path id="e27373f7-fd0b-426a-8828-0829b084b689" class="st4" d="M104,256.2c-1.8,0-3.3,1.5-3.3,3.3s1.5,3.3,3.3,3.3h190.3
	c1.8,0,3.3-1.5,3.3-3.3s-1.5-3.3-3.3-3.3H104z"/>
<path id="b4c6c7b3-e22e-4fba-a4f6-80d19d07dbd3" class="st4" d="M104,282.2c-1.8,0-3.3,1.5-3.3,3.3s1.5,3.3,3.3,3.3h190.3
	c1.8,0,3.3-1.5,3.3-3.3s-1.5-3.3-3.3-3.3H104z"/>
<path id="ebf0dc46-a6ad-47cb-a3de-ddb71e9e94e3" class="st4" d="M104,308.2c-1.8,0-3.3,1.5-3.3,3.3s1.5,3.3,3.3,3.3h190.3
	c1.8,0,3.3-1.5,3.3-3.3s-1.5-3.3-3.3-3.3H104z"/>
<path class="st5" d="M731.7,316.1H443.6c-4,0-7.3-3.3-7.3-7.3V139.4c0-4,3.3-7.3,7.3-7.3h288.1c4,0,7.3,3.3,7.3,7.3v169.5
	C739,312.9,735.7,316.1,731.7,316.1z"/>
<path class="st1" d="M769.6,354.9H481.5c-4,0-7.3-3.3-7.3-7.3V178.2c0-4,3.3-7.3,7.3-7.3h288.1c4,0,7.3,3.3,7.3,7.3v169.5
	C776.9,351.6,773.6,354.9,769.6,354.9z"/>
<path class="st3" d="M769.6,357.4H481.5c-5.4,0-9.7-4.4-9.7-9.7V178.2c0-5.4,4.4-9.7,9.7-9.7h288.1c5.4,0,9.7,4.4,9.7,9.7v169.5
	C779.3,353,775,357.4,769.6,357.4z M481.5,173.4c-2.6,0-4.8,2.1-4.8,4.8v169.5c0,2.6,2.1,4.8,4.8,4.8h288.1c2.6,0,4.8-2.1,4.8-4.8
	V178.2c0-2.6-2.1-4.8-4.8-4.8H481.5z"/>
<circle class="st6" cx="625.2" cy="285.4" r="25"/>
<path class="st2" d="M673.4,261.4c-6.1-6.5-16.3-6.8-22.8-0.7c-0.1,0.1-0.2,0.2-0.3,0.3l-81,81c-10.4,10.4-21.2-5.5-28.2-12
	c-16.7-16.5-34.7,14.4-45.9,23.3h260.6V350L673.4,261.4z"/>
<path class="st7" d="M352.2,359.7l-4.4-60.8l7.9-56.9l-22.4-1.5l-4.4,62.9l12.5,59.1c-2.8,3.9-2,9.4,2,12.3c3.9,2.8,9.4,2,12.3-2
	c2.8-3.9,2-9.4-2-12.3C353.2,360.2,352.7,359.9,352.2,359.7L352.2,359.7z"/>
<path class="st8" d="M330.5,248.6l5.3-22.7c2.2-9.4,11.6-15.3,21-13.1c8.7,2,14.4,10.2,13.4,19l-2.9,25.7L330.5,248.6z"/>
<polygon class="st7" points="371.9,557.6 382.4,557.6 387.5,516.9 371.9,516.9 "/>
<path class="st9" d="M369.2,554.2H390l0,0c7.3,0,13.2,5.9,13.2,13.2v0.4h-34V554.2z"/>
<polygon class="st7" points="424.4,557.3 434.6,554.3 428.2,513.9 413.2,518.2 "/>
<path class="st9" d="M420.9,554.7l20-5.7l0,0c7-2,14.4,2.1,16.4,9.1l0.1,0.4l-32.7,9.4L420.9,554.7z"/>
<path class="st9" d="M366.2,542.8l4.9-123.2l-12.7-55.7c-17.1-28.7,1.4-74.6,1.5-75l0.1-0.2h0.2l44.8-6.1l0.6,1.4
	c17.5,40.1,22.4,84.6,13.9,127.5l-4.7,23.9l23.1,93.1l-21.8,10.9L399.4,496l-11.3,44.4L366.2,542.8z"/>
<path class="st8" d="M354,300.3l-14.6-42.9c-9.1-16-3.3-30.2,3.1-39.3c7-9.8,7.4-15.3,7.5-15.4h0.1l19.2-0.6l17.8,18.1
	c1.1-0.4,10.6,22.8,9.8,24l12.4,40.2L354,300.3z"/>
<path class="st7" d="M472.4,307.7l-48.2-37.3L387,226.6l-16,15.7l43.9,45.2l52.4,30.2c1,4.7,5.7,7.8,10.5,6.7
	c4.7-1,7.8-5.7,6.7-10.5c-1-4.7-5.7-7.8-10.5-6.7C473.5,307.3,473,307.5,472.4,307.7L472.4,307.7z"/>
<path class="st8" d="M366.5,258.1L353.1,239c-5.6-7.9-3.7-18.8,4.2-24.4c7.3-5.1,17.2-4,23.1,2.7l17.2,19.3L366.5,258.1z"/>
<circle class="st7" cx="357.4" cy="174" r="22.8"/>
<path class="st9" d="M380.6,162.4h-36.2v-15.8c8-3.2,15.7-5.8,20.4,0C373.5,146.6,380.6,153.7,380.6,162.4L380.6,162.4z"/>
<path class="st9" d="M349.3,142.9c-33.2-0.9-26.9,53.8-26.9,53.8s6.3,0.8,9.1,1.3l3.5-1.9l3.7,2.4c1.7,0,3.5,0,5.4-0.1l1.7-3.5
	l3.8,3.4c6.9,0,25.7,0.2,25.7,0.2S386.5,143.9,349.3,142.9z"/>
</svg>
