<?xml version="1.0" encoding="utf-8"?>
<!-- Generator: Adobe Illustrator 24.1.2, SVG Export Plug-In . SVG Version: 6.00 Build 0)  -->
<svg version="1.1" id="eac00f18-7eab-4208-ad4d-248901d936f9"
	 xmlns="http://www.w3.org/2000/svg" xmlns:xlink="http://www.w3.org/1999/xlink" x="0px" y="0px" viewBox="0 0 816 637.1"
	 style="enable-background:new 0 0 816 637.1;" xml:space="preserve">
<style type="text/css">
	.st0{fill:#FFB7B7;}
	.st1{fill:#2F2E41;}
	.st2{fill:#CBCBCB;}
	.st3{fill:#FFFFFF;}
	.st4{fill:#F1F1F1;}
	.st5{fill:#E5E5E5;}
	.st6{fill:#ED8E7C;}
</style>
<path class="st0" d="M539.4,417.2c-0.5-5.8,3.9-10.8,10-11.4c0.6,0,1.3,0,2,0l11.7-21.2l15.4,3.6l-17,29.7c-1,5.8-6.6,9.7-12.7,8.8
	C543.7,426,539.8,422.1,539.4,417.2L539.4,417.2z"/>
<polygon class="st0" points="609.5,623.9 596.5,623.9 590.3,576.6 609.5,576.6 "/>
<path class="st1" d="M612.9,635.9h-42v-0.5c0-8.5,7.3-15.4,16.4-15.4l0,0h25.7L612.9,635.9z"/>
<polygon class="st0" points="714.4,614.8 701.8,618.1 682.6,573.9 701.1,569.1 "/>
<path class="st1" d="M721,625.4l-40.5,10.4l-0.1-0.5c-2.3-8.2,2.8-16.7,11.5-18.9l0,0l24.7-6.3L721,625.4z"/>
<polygon class="st1" points="585.8,419.5 579.3,512.5 593.2,616.8 616.1,610.2 617.1,517.1 635.3,463.3 689.5,606.8 714.4,598.1 
	693.9,505 682.3,417.6 "/>
<path class="st2" d="M649,256.3l-38.5,5.3l-13.8,12.9l-4.3,46.4l2.7,41.1l-11.1,72.5c0,0,28-14.6,49.8,3.7
	c21.8,18.3,52.1,3.2,52.7-9L649,256.3z"/>
<path class="st1" d="M629.5,314.6L629.5,314.6l19.1-58.7h0.2c1.3-0.1,33.4-1.8,40.6,13v0.1l-2.2,61l3.1,95.6l-59.3,12.1l-0.5,0.1
	L629.5,314.6z"/>
<path class="st1" d="M608.2,310.6l3.5-49.7c-25,1.5-24.6,18.1-24.6,18.9l-0.2,74.4l-5,79.7l18.2-1.3L608.2,310.6z"/>
<path class="st1" d="M551.9,401.1l22.1-48.4l15.4-26.7l8.1,48.3l-27.9,39.5L551.9,401.1z"/>
<path class="st0" d="M643.5,383.2c1.2-5.6,7.2-9.2,13.2-8.1c0.6,0.1,1.2,0.3,1.8,0.6l17.9-17l13.6,7.7l-25.6,23.7
	c-2.7,5.2-9.4,7.4-14.9,4.8C644.9,392.9,642.4,388.1,643.5,383.2z"/>
<path class="st1" d="M658.6,369.5l36.5-37.7l-24.1-32.4l2.4-15.9l14.2-16.6l0.2,0.3c1.5,1.8,37.2,45.4,38.2,62
	c1,16.6-50.2,58.4-52.4,60.2l-0.2,0.2L658.6,369.5z"/>
<ellipse class="st0" cx="626.8" cy="227.9" rx="25.9" ry="24.4"/>
<path class="st1" d="M651.1,208.4l1.2-2.4l-6.4-3c0,0-7-10.7-19.6-7.7c-12.6,3-18.4,4.8-18.4,4.8l-6.4,3l3.2,3l-5.6,1.8l3.8,1.7
	l-4.4,2.4l2.3,12.2c0,0,3.9-9.3,11.5-5.8c7.6,3.6,21.4-1.8,21.4-1.8l12.1,22c0,0,2.4-7.7,7-5.6C653.1,233.1,664.4,216.2,651.1,208.4
	z"/>
<path class="st3" d="M428.2,384.6l-322.1,88.8L0,88.8L322.1,0L428.2,384.6z"/>
<path class="st4" d="M428.2,384.6l-322.1,88.8L0,88.8L322.1,0L428.2,384.6z M110.2,466.2l310.7-85.7L318,7.2L7.2,92.9L110.2,466.2z"
	/>
<path class="st5" d="M252,172.3l-80.7,22.3c-2.4,0.7-4.8-0.7-5.5-3.1l-22.3-80.7c-0.7-2.4,0.7-4.8,3.1-5.5L227.4,83
	c2.4-0.7,4.8,0.7,5.5,3.1l22.3,80.7C255.8,169.2,254.4,171.6,252,172.3z M147.1,106.9c-1.4,0.4-2.3,1.9-1.9,3.3l22.3,80.7
	c0.4,1.4,1.9,2.3,3.3,1.9l80.7-22.3c1.4-0.4,2.3-1.9,1.9-3.3l-22.3-80.7c-0.4-1.4-1.9-2.3-3.3-1.9L147.1,106.9z"/>
<path class="st6" d="M231.5,188.6l-80.7,22.3c-2.1,0.6-4.3-0.7-4.9-2.8l-22.3-80.7c-0.6-2.1,0.7-4.3,2.8-4.9l80.7-22.3
	c2.1-0.6,4.3,0.7,4.9,2.8l22.3,80.7C234.9,185.8,233.7,188,231.5,188.6z"/>
<rect x="96.8" y="230.5" transform="matrix(0.964 -0.2659 0.2659 0.964 -54.795 65.2708)" class="st4" width="233.7" height="9"/>
<rect x="103" y="253.2" transform="matrix(0.964 -0.2659 0.2659 0.964 -60.6082 67.7355)" class="st4" width="233.7" height="9"/>
<rect x="109.3" y="275.9" transform="matrix(0.964 -0.2659 0.2659 0.964 -66.417 70.2286)" class="st4" width="233.7" height="9"/>
<rect x="120.3" y="315.9" transform="matrix(0.964 -0.2659 0.2659 0.964 -76.6581 74.5936)" class="st4" width="233.7" height="9"/>
<rect x="126.6" y="338.6" transform="matrix(0.964 -0.2659 0.2659 0.964 -82.4669 77.0867)" class="st4" width="233.7" height="9"/>
<rect x="132.8" y="361.3" transform="matrix(0.964 -0.2659 0.2659 0.964 -88.2801 79.5514)" class="st4" width="233.7" height="9"/>
<path class="st3" d="M531.3,472.1H197.1v-399h334.1L531.3,472.1L531.3,472.1z"/>
<path class="st5" d="M531.3,472.1H197.1v-399h334.1L531.3,472.1L531.3,472.1z M203,466.2h322.3V79.1H203V466.2z"/>
<rect x="279.4" y="244.7" class="st6" width="191" height="9"/>
<rect x="279.4" y="268.2" class="st6" width="191" height="9"/>
<rect x="279.4" y="291.7" class="st6" width="191" height="9"/>
<circle class="st6" cx="263.9" cy="250.5" r="5.9"/>
<rect x="279.4" y="143.5" class="st5" width="191" height="9"/>
<rect x="279.4" y="167" class="st5" width="191" height="9"/>
<rect x="279.4" y="190.5" class="st5" width="191" height="9"/>
<circle class="st5" cx="263.9" cy="148.4" r="5.9"/>
<rect x="279.4" y="346.9" class="st5" width="191" height="9"/>
<rect x="279.4" y="370.4" class="st5" width="191" height="9"/>
<rect x="279.4" y="393.8" class="st5" width="191" height="9"/>
<circle class="st5" cx="263.9" cy="351.7" r="5.9"/>
</svg>
